<svg width="16" height="16" viewBox="0 0 16 16" fill="none" xmlns="http://www.w3.org/2000/svg">
<g clip-path="url(#clip0_2038_9135)">
<path d="M-3.49691e-07 8C-2.80529e-07 9.58225 0.469192 11.129 1.34824 12.4446C2.22729 13.7602 3.47672 14.7855 4.93853 15.391C6.40034 15.9965 8.00887 16.155 9.56072 15.8463C11.1126 15.5376 12.538 14.7757 13.6569 13.6568C14.7757 12.538 15.5376 11.1126 15.8463 9.56072C16.155 8.00887 15.9965 6.40034 15.391 4.93853C14.7855 3.47672 13.7602 2.22729 12.4446 1.34824C11.129 0.469187 9.58225 -4.23355e-06 8 -4.16439e-06C5.87897 0.00228952 3.84547 0.84588 2.34568 2.34567C0.845885 3.84547 0.00229361 5.87897 -3.49691e-07 8ZM10.6667 8C10.6672 8.488 10.4888 8.95927 10.1653 9.32466C9.97133 9.54266 9.78267 9.74933 9.64733 9.88466L7.76467 11.8C7.6392 11.9179 7.473 11.9826 7.30086 11.9807C7.12872 11.9789 6.96399 11.9104 6.84115 11.7898C6.71831 11.6692 6.64688 11.5058 6.64182 11.3337C6.63676 11.1616 6.69846 10.9943 6.814 10.8667L8.7 8.94666C8.82467 8.82133 8.994 8.63466 9.16667 8.44066C9.27409 8.31887 9.33337 8.16206 9.33337 7.99966C9.33337 7.83726 9.27409 7.68045 9.16667 7.55866C8.99467 7.36533 8.82533 7.17866 8.70467 7.05733L6.814 5.13333C6.74854 5.07183 6.69618 4.99774 6.66007 4.91551C6.62396 4.83327 6.60483 4.74459 6.60385 4.65478C6.60286 4.56497 6.62003 4.47589 6.65432 4.39288C6.68862 4.30987 6.73933 4.23465 6.80342 4.17173C6.86751 4.10881 6.94366 4.05948 7.02728 4.02672C7.11091 3.99396 7.20029 3.97843 7.29007 3.98107C7.37984 3.98371 7.46816 4.00446 7.54972 4.04208C7.63127 4.0797 7.70439 4.13342 7.76467 4.19999L9.65067 6.11933C9.784 6.25266 9.97067 6.45733 10.1633 6.67466C10.4879 7.03983 10.667 7.51146 10.6667 8Z" fill="#2563EB"/>
</g>
<defs>
<clipPath id="clip0_2038_9135">
<rect width="16" height="16" fill="white" transform="translate(0 16) rotate(-90)"/>
</clipPath>
</defs>
</svg>
