<svg width="16" height="16" viewBox="0 0 16 16" fill="none" xmlns="http://www.w3.org/2000/svg">
<path d="M8 0C6.41775 0 4.87104 0.469192 3.55544 1.34824C2.23985 2.22729 1.21447 3.47672 0.608967 4.93853C0.00346629 6.40034 -0.15496 8.00887 0.153721 9.56072C0.462403 11.1126 1.22433 12.538 2.34315 13.6569C3.46197 14.7757 4.88743 15.5376 6.43928 15.8463C7.99113 16.155 9.59966 15.9965 11.0615 15.391C12.5233 14.7855 13.7727 13.7602 14.6518 12.4446C15.5308 11.129 16 9.58225 16 8C15.9977 5.87897 15.1541 3.84547 13.6543 2.34568C12.1545 0.845886 10.121 0.00229405 8 0ZM8 10.6667C7.512 10.6672 7.04073 10.4888 6.67534 10.1653C6.45734 9.97133 6.25067 9.78267 6.11534 9.64733L4.2 7.76467C4.08213 7.6392 4.01736 7.473 4.01926 7.30086C4.02115 7.12873 4.08956 6.96399 4.21016 6.84115C4.33076 6.71831 4.49421 6.64688 4.66629 6.64182C4.83836 6.63676 5.00572 6.69846 5.13334 6.814L7.05334 8.7C7.17867 8.82467 7.36534 8.994 7.55934 9.16667C7.68113 9.27409 7.83794 9.33337 8.00034 9.33337C8.16273 9.33337 8.31955 9.27409 8.44134 9.16667C8.63467 8.99467 8.82134 8.82533 8.94267 8.70467L10.8667 6.814C10.9282 6.74854 11.0023 6.69618 11.0845 6.66007C11.1667 6.62396 11.2554 6.60483 11.3452 6.60385C11.435 6.60286 11.5241 6.62003 11.6071 6.65432C11.6901 6.68862 11.7654 6.73933 11.8283 6.80342C11.8912 6.86751 11.9405 6.94366 11.9733 7.02728C12.006 7.11091 12.0216 7.20029 12.0189 7.29007C12.0163 7.37984 11.9955 7.46816 11.9579 7.54972C11.9203 7.63127 11.8666 7.70439 11.8 7.76467L9.88067 9.65067C9.74734 9.784 9.54267 9.97067 9.32534 10.1633C8.96017 10.4879 8.48853 10.667 8 10.6667Z" fill="white"/>
</svg>
