<svg width="314" height="208" viewBox="0 0 314 208" fill="none" xmlns="http://www.w3.org/2000/svg">
<path d="M314 16C314 7.16345 306.837 0 298 0H16C7.16345 0 0 7.16344 0 16V208C0 216.837 7.16345 224 16 224H298C306.837 224 314 216.837 314 208V16Z" fill="#F1F5F9"/>
<path d="M142.037 115.565L142.006 115.596C141.584 114.679 141.318 113.637 141.208 112.486C141.318 113.621 141.615 114.648 142.037 115.565ZM152.085 102.143C153.073 102.143 154.02 101.753 154.719 101.059C155.417 100.365 155.81 99.4237 155.81 98.442C155.81 97.4603 155.417 96.5188 154.719 95.8246C154.02 95.1305 153.073 94.7405 152.085 94.7405C151.097 94.7405 150.15 95.1305 149.451 95.8246C148.753 96.5188 148.36 97.4603 148.36 98.442C148.36 99.4237 148.753 100.365 149.451 101.059C150.15 101.753 151.097 102.143 152.085 102.143Z" fill="#CBD5E1"/>
<path d="M163.338 89.1105H150.223C144.526 89.1105 141.13 92.4854 141.13 98.1464V111.179C141.13 112.875 141.427 114.352 142.006 115.596C143.352 118.551 146.232 120.215 150.223 120.215H163.338C169.035 120.215 172.431 116.84 172.431 111.179V98.1464C172.431 92.4854 169.035 89.1105 163.338 89.1105ZM169.88 105.441C168.659 104.399 166.687 104.399 165.466 105.441L158.956 110.993C157.735 112.035 155.763 112.035 154.542 110.993L154.01 110.557C152.899 109.593 151.13 109.5 149.878 110.34L144.025 114.243C143.681 113.372 143.477 112.361 143.477 111.179V98.1464C143.477 93.7607 145.809 91.4433 150.223 91.4433H163.338C167.751 91.4433 170.083 93.7607 170.083 98.1464V105.612L169.88 105.441Z" fill="#CBD5E1"/>
</svg>
