<svg width="84" height="84" viewBox="0 0 84 84" fill="none" xmlns="http://www.w3.org/2000/svg">
<path d="M63.5079 34.0977C61.0684 33.8525 55.7011 33.8525 55.7011 30.4103C55.7011 25.7405 62.5314 19.5949 73.5092 12.9573C76.9236 10.7442 84.0003 7.30359 84.0003 2.63228C84.0003 -1.05511 81.3159 -3.75857 75.7054 -3.0214C70.3382 -2.28424 62.0432 1.40315 51.067 10.7442C39.6011 20.3321 28.8682 36.3107 28.8682 52.0427C28.8682 68.0213 39.601 84 56.9224 84C70.8264 84 82.7805 73.4298 82.7805 58.9255C82.779 47.8633 75.2172 35.0816 63.5079 34.0977Z" fill="#F1F5F9"/>
<path d="M29.2143 27.1853C27.175 26.0991 24.9396 25.4378 22.6412 25.2407C20.2017 24.9955 14.8345 24.9955 14.8345 21.5534C14.8345 16.8836 21.6648 10.7379 32.6426 4.10034C36.0585 1.88729 43.1321 -1.55334 43.1321 -6.22465C43.1321 -9.91204 40.4478 -12.6155 34.8372 -11.8783C29.47 -11.1412 21.1751 -7.45378 10.1989 1.88729C-1.26557 11.4751 -12 27.4538 -12 43.1873C-12 59.1659 -1.26711 75.1446 16.0543 75.1446C20.0143 75.1493 23.9268 74.2756 27.5141 72.5855C24.0966 66.3592 22.2747 59.1551 22.2747 52.0441C22.2762 43.2633 25.0823 34.7479 29.2143 27.1853Z" fill="#F1F5F9"/>
</svg>
