<svg width="140" height="260" viewBox="0 0 140 260" fill="none" xmlns="http://www.w3.org/2000/svg">
<path d="M140 16C140 7.16344 132.837 0 124 0H16C7.16344 0 0 7.16344 0 16V302H140V16Z" fill="#F1F5F9"/>
<path d="M55.0375 116.149L55.0062 116.181C54.5836 115.263 54.3176 114.221 54.208 113.07C54.3176 114.205 54.6149 115.232 55.0375 116.149ZM65.085 102.728C66.0729 102.728 67.0203 102.338 67.7189 101.644C68.4174 100.949 68.8098 100.008 68.8098 99.0262C68.8098 98.0445 68.4174 97.103 67.7189 96.4089C67.0203 95.7147 66.0729 95.3247 65.085 95.3247C64.0972 95.3247 63.1497 95.7147 62.4512 96.4089C61.7527 97.103 61.3602 98.0445 61.3602 99.0262C61.3602 100.008 61.7527 100.949 62.4512 101.644C63.1497 102.338 64.0972 102.728 65.085 102.728Z" fill="#CBD5E1"/>
<path d="M76.3378 89.6948H63.2228C57.526 89.6948 54.1299 93.0696 54.1299 98.7307V111.764C54.1299 113.459 54.4272 114.936 55.0063 116.181C56.3522 119.136 59.2319 120.8 63.2228 120.8H76.3378C82.0346 120.8 85.4307 117.425 85.4307 111.764V98.7307C85.4307 93.0696 82.0346 89.6948 76.3378 89.6948ZM82.8797 106.025C81.659 104.983 79.687 104.983 78.4663 106.025L71.9557 111.577C70.735 112.619 68.763 112.619 67.5423 111.577L67.0102 111.142C65.899 110.177 64.1305 110.084 62.8785 110.924L57.0252 114.827C56.6809 113.957 56.4774 112.946 56.4774 111.764V98.7307C56.4774 94.3449 58.8094 92.0276 63.2228 92.0276H76.3378C80.7512 92.0276 83.0831 94.3449 83.0831 98.7307V106.196L82.8797 106.025Z" fill="#CBD5E1"/>
</svg>
