<svg width="32" height="32" viewBox="0 0 32 32" fill="none" xmlns="http://www.w3.org/2000/svg">
<g clip-path="url(#clip0_161_81153)">
<path d="M16 0.375C7.37056 0.375 0.375 7.37056 0.375 16C0.375 24.6294 7.37056 31.625 16 31.625C24.6294 31.625 31.625 24.6294 31.625 16C31.625 7.37056 24.6294 0.375 16 0.375ZM10.8094 25.3188H6.81287V12.8266H10.8094V25.3188ZM8.81119 11.0223C8.38189 11.0223 7.96222 10.895 7.60526 10.6565C7.24831 10.418 6.97009 10.079 6.8058 9.68235C6.64151 9.28573 6.59852 8.8493 6.68227 8.42825C6.76602 8.00719 6.97274 7.62043 7.27631 7.31687C7.57987 7.01331 7.96663 6.80658 8.38768 6.72283C8.80874 6.63908 9.24517 6.68207 9.64179 6.84636C10.0384 7.01065 10.3774 7.28887 10.6159 7.64583C10.8544 8.00278 10.9817 8.42245 10.9817 8.85175C10.9817 9.4274 10.753 9.97948 10.346 10.3865C9.93892 10.7936 9.38684 11.0223 8.81119 11.0223ZM25.3544 25.3188H21.4327V19.2965C21.4327 17.8585 21.4031 16.02 19.3904 16.02C17.3482 16.02 17.0374 17.5786 17.0374 19.1904V25.3188H13.1156V12.9461H16.8844V14.6351C17.8406 13.64 19.2202 12.6372 20.6531 12.6372C24.6291 12.6372 25.3594 15.1997 25.3594 18.5247L25.3544 25.3188Z" fill="#475569"/>
</g>
<defs>
<clipPath id="clip0_161_81153">
<rect width="32" height="32" fill="white"/>
</clipPath>
</defs>
</svg>
