<svg width="44" height="44" viewBox="0 0 44 44" fill="none" xmlns="http://www.w3.org/2000/svg">
<g clip-path="url(#clip0_161_80909)">
<mask id="mask0_161_80909" style="mask-type:alpha" maskUnits="userSpaceOnUse" x="0" y="0" width="44" height="44">
<path fill-rule="evenodd" clip-rule="evenodd" d="M31.2012 43.6995C31.8942 43.9695 32.6844 43.9522 33.3839 43.6156L42.4428 39.2567C43.3946 38.7986 44 37.8352 44 36.7784V7.22185C44 6.16497 43.3947 5.20159 42.4428 4.74355L33.3839 0.384452C32.4659 -0.0572571 31.3916 0.0509341 30.5859 0.636658C30.4709 0.720328 30.3612 0.813749 30.2584 0.9167L12.9162 16.7383L5.36237 11.0042C4.65916 10.4705 3.6756 10.5142 3.02251 11.1083L0.599733 13.3122C-0.199123 14.0388 -0.200038 15.2956 0.597753 16.0235L7.14872 22L0.597753 27.9766C-0.200038 28.7045 -0.199123 29.9613 0.599733 30.6879L3.02251 32.8918C3.6756 33.4859 4.65916 33.5296 5.36237 32.9958L12.9162 27.2618L30.2584 43.0833C30.5327 43.3579 30.8548 43.5646 31.2012 43.6995ZM33.0067 12.0115L19.848 22L33.0067 31.9885V12.0115Z" fill="white"/>
</mask>
<g mask="url(#mask0_161_80909)">
<path d="M42.4434 4.75045L33.3774 0.385364C32.328 -0.119894 31.0739 0.0932346 30.2504 0.916791L0.571752 27.9767C-0.226528 28.7045 -0.225611 29.9614 0.573732 30.688L2.99797 32.8919C3.65147 33.486 4.63564 33.5297 5.33925 32.9959L41.0792 5.88288C42.2782 4.97327 44.0004 5.82845 44.0004 7.33347V7.22823C44.0004 6.17179 43.3952 5.20876 42.4434 4.75045Z" fill="#0065A9"/>
<g filter="url(#filter0_d_161_80909)">
<path d="M42.4434 39.2497L33.3774 43.6148C32.328 44.1201 31.0739 43.9069 30.2504 43.0834L0.571752 16.0235C-0.226528 15.2956 -0.225611 14.0388 0.573732 13.3121L2.99797 11.1083C3.65147 10.5142 4.63564 10.4704 5.33925 11.0042L41.0792 38.1173C42.2782 39.0269 44.0004 38.1717 44.0004 36.6667V36.772C44.0004 37.8284 43.3952 38.7914 42.4434 39.2497Z" fill="#007ACC"/>
</g>
<g filter="url(#filter1_d_161_80909)">
<path d="M33.3774 43.6156C32.3277 44.1205 31.0736 43.9069 30.25 43.0833C31.2648 44.0981 33 43.3794 33 41.9442V2.05573C33 0.620565 31.2648 -0.0981738 30.25 0.91664C31.0736 0.0930097 32.3277 -0.12042 33.3774 0.384391L42.4418 4.7435C43.3943 5.20154 44 6.16492 44 7.2218V36.7783C44 37.8352 43.3943 38.7986 42.4418 39.2566L33.3774 43.6156Z" fill="#1F9CF0"/>
</g>
<g style="mix-blend-mode:overlay" opacity="0.25">
<path fill-rule="evenodd" clip-rule="evenodd" d="M31.1749 43.6996C31.8679 43.9695 32.6581 43.9522 33.3575 43.6156L42.4164 39.2567C43.3683 38.7987 43.9736 37.8353 43.9736 36.7784V7.22188C43.9736 6.16495 43.3683 5.20157 42.4164 4.74353L33.3575 0.384453C32.4396 -0.0572568 31.3652 0.0509344 30.5596 0.636654C30.4445 0.720329 30.3349 0.81375 30.232 0.916701L12.8899 16.7382L5.33599 11.0043C4.63283 10.4704 3.64923 10.5142 2.99614 11.1083L0.573367 13.3121C-0.22549 14.0388 -0.226406 15.2956 0.571387 16.0235L7.12235 22L0.571387 27.9766C-0.226406 28.7045 -0.22549 29.9613 0.573367 30.6879L2.99614 32.8918C3.64923 33.4859 4.63283 33.5296 5.33599 32.9958L12.8899 27.2618L30.232 43.0834C30.5063 43.3578 30.8284 43.5646 31.1749 43.6996ZM32.9803 12.0115L19.8216 22L32.9803 31.9886V12.0115Z" fill="url(#paint0_linear_161_80909)"/>
</g>
</g>
</g>
<defs>
<filter id="filter0_d_161_80909" x="-8.35971" y="2.29813" width="60.693" height="49.9214" filterUnits="userSpaceOnUse" color-interpolation-filters="sRGB">
<feFlood flood-opacity="0" result="BackgroundImageFix"/>
<feColorMatrix in="SourceAlpha" type="matrix" values="0 0 0 0 0 0 0 0 0 0 0 0 0 0 0 0 0 0 127 0" result="hardAlpha"/>
<feOffset/>
<feGaussianBlur stdDeviation="4.16667"/>
<feColorMatrix type="matrix" values="0 0 0 0 0 0 0 0 0 0 0 0 0 0 0 0 0 0 0.25 0"/>
<feBlend mode="overlay" in2="BackgroundImageFix" result="effect1_dropShadow_161_80909"/>
<feBlend mode="normal" in="SourceGraphic" in2="effect1_dropShadow_161_80909" result="shape"/>
</filter>
<filter id="filter1_d_161_80909" x="21.9167" y="-8.21994" width="30.4167" height="60.4399" filterUnits="userSpaceOnUse" color-interpolation-filters="sRGB">
<feFlood flood-opacity="0" result="BackgroundImageFix"/>
<feColorMatrix in="SourceAlpha" type="matrix" values="0 0 0 0 0 0 0 0 0 0 0 0 0 0 0 0 0 0 127 0" result="hardAlpha"/>
<feOffset/>
<feGaussianBlur stdDeviation="4.16667"/>
<feColorMatrix type="matrix" values="0 0 0 0 0 0 0 0 0 0 0 0 0 0 0 0 0 0 0.25 0"/>
<feBlend mode="overlay" in2="BackgroundImageFix" result="effect1_dropShadow_161_80909"/>
<feBlend mode="normal" in="SourceGraphic" in2="effect1_dropShadow_161_80909" result="shape"/>
</filter>
<linearGradient id="paint0_linear_161_80909" x1="21.9736" y1="0.113464" x2="21.9736" y2="43.8866" gradientUnits="userSpaceOnUse">
<stop stop-color="white"/>
<stop offset="1" stop-color="white" stop-opacity="0"/>
</linearGradient>
<clipPath id="clip0_161_80909">
<rect width="44" height="44" fill="white"/>
</clipPath>
</defs>
</svg>
