<svg width="32" height="32" viewBox="0 0 32 32" fill="none" xmlns="http://www.w3.org/2000/svg">
<path fill-rule="evenodd" clip-rule="evenodd" d="M15.9999 1.396C23.9616 1.396 30.4159 7.85025 30.4159 15.8119C30.4159 22.2809 26.155 27.7546 20.2868 29.5798L20.0658 29.6367V25.9642C20.0284 25.505 19.7666 24.9454 19.2804 24.2854C21.2999 23.9411 22.7679 23.3528 23.6841 22.5206C24.8996 21.258 25.5073 19.6079 25.5074 17.5704V16.5087C25.4139 15.6669 25.0399 14.7247 24.3854 13.6821C24.3012 13.6821 24.2124 13.5912 24.1189 13.4095C24.2965 12.8451 24.3854 12.3429 24.3854 11.9029V11.7307C24.2545 10.315 24.0535 9.60718 23.7823 9.60718C22.838 9.60718 21.6272 10.1094 20.1499 11.1137C18.9251 10.8172 18.0602 10.669 17.5554 10.6689H15.662C15.3628 10.6689 14.526 10.8172 13.1516 11.1137C11.7491 10.1094 10.5103 9.60718 9.43505 9.60718C9.19192 9.98027 9.01894 10.7168 8.91611 11.8168V12.0034C9.08444 12.8834 9.16861 13.3521 9.16861 13.4095C8.25228 14.653 7.79411 15.9778 7.79411 17.3839C7.79411 20.2631 8.83194 22.2384 10.9076 23.3097C11.5714 23.721 12.5204 24.0175 13.7546 24.1993H14.0071V24.3714C13.6799 24.7445 13.3947 25.3615 13.1516 26.2224C12.5967 26.4123 12.013 26.5045 11.4265 26.495H11.3284C10.4869 26.495 9.62667 25.7585 8.7478 24.2854C8.12138 23.7497 7.51365 23.4819 6.92461 23.4819L6.48986 23.6684C6.48986 23.831 6.92461 24.2997 7.79411 25.0746C7.99048 25.3041 8.39253 26.0406 9.00023 27.2841C9.62669 27.9346 10.6084 28.2598 11.9454 28.2599C12.3446 28.1992 12.7479 28.1704 13.1516 28.1737L13.2357 28.3459V29.9566L13.0946 29.935C6.52548 28.5908 1.58398 22.7784 1.58398 15.8119C1.58398 7.85031 8.03823 1.396 15.9999 1.396Z" fill="#475569"/>
</svg>
