<svg width="48" height="48" viewBox="0 0 48 48" fill="none" xmlns="http://www.w3.org/2000/svg">
<g clip-path="url(#clip0_161_80883)">
<path d="M47.8037 27.0475C49.4834 13.8978 40.1971 1.87599 27.0714 0.19629C13.9458 -1.48341 1.87599 7.80292 0.19629 20.9286C-1.48341 34.0542 7.80292 46.1 20.9286 47.8037C34.0782 49.4834 46.1 40.1971 47.8037 27.0475Z" fill="#FF6C37"/>
<path d="M32.6623 15.4095L22.5361 25.5357L19.6807 22.6802C29.6389 12.722 30.6227 13.5859 32.6623 15.4095Z" fill="white"/>
<path d="M22.5364 25.7757C22.4644 25.7757 22.4165 25.7517 22.3685 25.7037L19.489 22.8482C19.393 22.7522 19.393 22.6082 19.489 22.5122C29.6152 12.3861 30.671 13.3459 32.8066 15.2656C32.8546 15.3135 32.8786 15.3615 32.8786 15.4335C32.8786 15.5055 32.8546 15.5535 32.8066 15.6015L22.6804 25.7037C22.6564 25.7517 22.5844 25.7757 22.5364 25.7757ZM20.0169 22.6802L22.5364 25.1998L32.3027 15.4335C30.527 13.8498 29.3272 13.3699 20.0169 22.6802Z" fill="#FF6C37"/>
<path d="M25.4402 28.4392L22.6807 25.6797L32.8068 15.5535C35.5183 18.289 31.4631 22.7282 25.4402 28.4392Z" fill="white"/>
<path d="M25.4403 28.6791C25.3683 28.6791 25.3203 28.6551 25.2723 28.6071L22.5128 25.8476C22.4648 25.7996 22.4648 25.7517 22.4648 25.6797C22.4648 25.6077 22.4888 25.5597 22.5368 25.5117L32.663 15.3855C32.759 15.2895 32.903 15.2895 32.9989 15.3855C33.6228 15.9614 33.9588 16.7773 33.9348 17.6171C33.8868 20.2806 30.8633 23.664 25.6323 28.6071C25.5603 28.6551 25.4883 28.6791 25.4403 28.6791ZM23.0167 25.6797C24.5525 27.2394 25.2004 27.8633 25.4403 28.1032C29.4716 24.2639 33.3829 20.3286 33.4069 17.6171C33.4309 16.9932 33.1909 16.3693 32.783 15.8894L23.0167 25.6797Z" fill="#FF6C37"/>
<path d="M19.7289 22.7522L21.7685 24.7919C21.8165 24.8399 21.8165 24.8878 21.7685 24.9358C21.7446 24.9598 21.7446 24.9598 21.7206 24.9598L17.4973 25.8717C17.2814 25.8957 17.0894 25.7517 17.0414 25.5357C17.0174 25.4158 17.0654 25.2958 17.1374 25.2238L19.5849 22.7762C19.6329 22.7282 19.7049 22.7042 19.7289 22.7522Z" fill="white"/>
<path d="M17.4256 26.1116C17.0657 26.1116 16.8018 25.8237 16.8018 25.4637C16.8018 25.2958 16.8737 25.1278 16.9937 25.0078L19.4413 22.5603C19.5853 22.4403 19.7772 22.4403 19.9212 22.5603L21.9608 24.5999C22.1048 24.7199 22.1048 24.9358 21.9608 25.0798C21.9128 25.1278 21.8648 25.1518 21.7929 25.1758L17.5696 26.0876C17.5216 26.0876 17.4736 26.1116 17.4256 26.1116ZM19.6572 23.0162L17.3057 25.3678C17.2577 25.4157 17.2337 25.4877 17.2817 25.5597C17.3057 25.6317 17.3777 25.6557 17.4496 25.6317L21.4089 24.7679L19.6572 23.0162Z" fill="#FF6C37"/>
<path d="M38.0133 9.79455C36.4775 8.30682 34.006 8.35481 32.5182 9.91453C31.0305 11.4742 31.0785 13.9218 32.6382 15.4095C33.91 16.6333 35.8296 16.8493 37.3414 15.9374L34.6059 13.2019L38.0133 9.79455Z" fill="white"/>
<path d="M35.3265 16.7293C33.0469 16.7293 31.1992 14.8816 31.1992 12.602C31.1992 10.3225 33.0469 8.47479 35.3265 8.47479C36.3823 8.47479 37.4141 8.88272 38.182 9.62658C38.23 9.67458 38.2539 9.72257 38.2539 9.79455C38.2539 9.86654 38.23 9.91453 38.182 9.96252L34.9425 13.2019L37.4861 15.7455C37.5821 15.8415 37.5821 15.9854 37.4861 16.0814C37.4621 16.1054 37.4621 16.1054 37.4381 16.1294C36.8142 16.5133 36.0703 16.7293 35.3265 16.7293ZM35.3265 8.9787C33.3108 8.9787 31.6791 10.6104 31.7031 12.626C31.7031 14.6417 33.3348 16.2734 35.3505 16.2494C35.9024 16.2494 36.4543 16.1294 36.9582 15.8655L34.4386 13.3699C34.3906 13.3219 34.3666 13.2739 34.3666 13.2019C34.3666 13.13 34.3906 13.082 34.4386 13.034L37.6541 9.81855C37.0062 9.26665 36.1903 8.9787 35.3265 8.9787Z" fill="#FF6C37"/>
<path d="M38.0858 9.86653L38.0378 9.81854L34.6064 13.2019L37.318 15.9134C37.5819 15.7455 37.8459 15.5535 38.0618 15.3375C39.5975 13.8258 39.5975 11.3783 38.0858 9.86653Z" fill="white"/>
<path d="M37.3417 16.1774C37.2697 16.1774 37.2217 16.1534 37.1737 16.1054L34.4382 13.3699C34.3902 13.3219 34.3662 13.274 34.3662 13.202C34.3662 13.13 34.3902 13.082 34.4382 13.034L37.8456 9.62661C37.9416 9.53063 38.0855 9.53063 38.1815 9.62661L38.2535 9.6746C39.8612 11.2823 39.8612 13.8738 38.2775 15.5056C38.0375 15.7455 37.7736 15.9615 37.4856 16.1294C37.4137 16.1534 37.3657 16.1774 37.3417 16.1774ZM34.9421 13.202L37.3657 15.6255C37.5576 15.5056 37.7496 15.3376 37.8936 15.1936C39.2613 13.8259 39.3333 11.5943 38.0136 10.1545L34.9421 13.202Z" fill="#FF6C37"/>
<path d="M33.0705 15.8415C32.4946 15.2656 31.5588 15.2656 30.9829 15.8415L21.9365 24.8878L23.4483 26.3996L33.0225 18.0011C33.6464 17.4732 33.6944 16.5373 33.1665 15.9135C33.1185 15.8895 33.0945 15.8655 33.0705 15.8415Z" fill="white"/>
<path d="M23.4245 26.6395C23.3525 26.6395 23.3046 26.6156 23.2566 26.5676L21.7448 25.0558C21.6489 24.9599 21.6489 24.8159 21.7448 24.7199L30.7912 15.6735C31.4631 15.0016 32.5429 15.0016 33.2148 15.6735C33.8867 16.3454 33.8867 17.4252 33.2148 18.0971C33.1908 18.1211 33.1668 18.1451 33.1428 18.1691L23.5685 26.5676C23.5445 26.6156 23.4965 26.6395 23.4245 26.6395ZM22.2727 24.8879L23.4485 26.0637L32.8548 17.8091C33.3827 17.3772 33.4307 16.5854 32.9988 16.0575C32.5669 15.5296 31.775 15.4816 31.2471 15.9135C31.2231 15.9375 31.1991 15.9615 31.1511 15.9855L22.2727 24.8879Z" fill="#FF6C37"/>
<path d="M15.002 35.182C14.906 35.23 14.858 35.3259 14.882 35.4219L15.2899 37.1496C15.3859 37.3896 15.2419 37.6775 14.978 37.7495C14.786 37.8215 14.57 37.7495 14.4501 37.6055L11.8105 34.99L20.425 26.3755L23.4005 26.4235L25.4161 28.4392C24.9362 28.8471 22.0327 31.6546 15.002 35.182Z" fill="white"/>
<path d="M14.8096 37.9895C14.6176 37.9895 14.4257 37.9175 14.3057 37.7735L11.6902 35.158C11.6422 35.11 11.6182 35.062 11.6182 34.99C11.6182 34.918 11.6422 34.87 11.6902 34.8221L20.3046 26.2076C20.3526 26.1596 20.4246 26.1356 20.4726 26.1356L23.448 26.1836C23.52 26.1836 23.568 26.2076 23.616 26.2556L25.6316 28.2712C25.6796 28.3192 25.7036 28.3912 25.7036 28.4632C25.7036 28.5352 25.6796 28.5832 25.6076 28.6312L25.4397 28.7751C22.8961 31.0067 19.4408 33.2383 15.1455 35.374L15.5535 37.0776C15.6254 37.3896 15.4815 37.7255 15.1935 37.8935C15.0495 37.9655 14.9296 37.9895 14.8096 37.9895ZM12.1701 34.99L14.6416 37.4376C14.7136 37.5576 14.8576 37.6056 14.9776 37.5336C15.0975 37.4616 15.1455 37.3176 15.0735 37.1976L14.6656 35.4699C14.6176 35.254 14.7136 35.062 14.9056 34.966C19.1528 32.8304 22.5842 30.6228 25.1037 28.4392L23.3281 26.6635L20.5686 26.6155L12.1701 34.99Z" fill="#FF6C37"/>
<path d="M9.77046 37.0536L11.8341 34.99L14.9055 38.0614L10.0104 37.7255C9.79446 37.7015 9.65049 37.5095 9.67448 37.2936C9.67448 37.1976 9.69848 37.1016 9.77046 37.0536Z" fill="white"/>
<path d="M14.9058 38.2774L9.98673 37.9415C9.62679 37.9175 9.38683 37.6056 9.41083 37.2456C9.43483 37.1016 9.48282 36.9577 9.60279 36.8617L11.6664 34.7981C11.7624 34.7021 11.9064 34.7021 12.0024 34.7981L15.0738 37.8695C15.1458 37.9415 15.1698 38.0375 15.1218 38.1335C15.0738 38.2294 15.0018 38.2774 14.9058 38.2774ZM11.8344 35.326L9.93873 37.2216C9.86675 37.2696 9.86675 37.3896 9.93873 37.4376C9.96273 37.4616 9.98673 37.4856 10.0347 37.4856L14.282 37.7735L11.8344 35.326Z" fill="#FF6C37"/>
<path d="M19.5847 27.4794C19.4407 27.4794 19.3447 27.3594 19.3447 27.2394C19.3447 27.1674 19.3687 27.1194 19.4167 27.0714L21.7443 24.7439C21.8403 24.6479 21.9843 24.6479 22.0802 24.7439L23.592 26.2556C23.6639 26.3276 23.6879 26.3996 23.6639 26.4955C23.64 26.5675 23.568 26.6395 23.472 26.6635L19.6327 27.4794C19.6087 27.4794 19.5847 27.4794 19.5847 27.4794ZM21.9123 25.2478L20.3285 26.8315L22.9201 26.2796L21.9123 25.2478Z" fill="#FF6C37"/>
<path d="M23.4004 26.4236L20.7609 26.9995C20.5689 27.0475 20.377 26.9275 20.329 26.7355C20.305 26.6155 20.329 26.4956 20.425 26.3996L21.8887 24.9359L23.4004 26.4236Z" fill="white"/>
<path d="M20.7132 27.2394C20.3772 27.2394 20.1133 26.9755 20.1133 26.6395C20.1133 26.4716 20.1853 26.3276 20.2813 26.2076L21.745 24.7439C21.841 24.6479 21.9849 24.6479 22.0809 24.7439L23.5927 26.2556C23.6646 26.3276 23.6886 26.3996 23.6646 26.4955C23.6406 26.5675 23.5687 26.6395 23.4727 26.6635L20.8332 27.2394C20.7852 27.2394 20.7372 27.2394 20.7132 27.2394ZM21.913 25.2478L20.6172 26.5435C20.5692 26.5915 20.5692 26.6395 20.5932 26.6875C20.6172 26.7355 20.6652 26.7595 20.7372 26.7595L22.9448 26.2796L21.913 25.2478Z" fill="#FF6C37"/>
<path d="M38.1092 12.1701C38.0612 12.0262 37.8933 11.9542 37.7493 12.0022C37.6053 12.0502 37.5333 12.2181 37.5813 12.3621C37.5813 12.3861 37.6053 12.4101 37.6053 12.4341C37.7493 12.722 37.7013 13.082 37.5093 13.3459C37.4134 13.4659 37.4374 13.6339 37.5333 13.7299C37.6533 13.8258 37.8213 13.8018 37.9173 13.6819C38.2772 13.226 38.3492 12.6501 38.1092 12.1701Z" fill="#FF6C37"/>
</g>
<defs>
<clipPath id="clip0_161_80883">
<rect width="48" height="48" fill="white"/>
</clipPath>
</defs>
</svg>
