<svg width="46" height="52" viewBox="0 0 46 52" fill="none" xmlns="http://www.w3.org/2000/svg">
<g clip-path="url(#clip0_161_80945)">
<path d="M45.6352 26.0046C45.6352 22.9815 41.8493 20.1165 36.0449 18.3398C37.3844 12.4238 36.7891 7.71705 34.1659 6.21014C33.5613 5.85667 32.8544 5.68923 32.0823 5.68923V7.76356C32.5102 7.76356 32.8544 7.84728 33.1427 8.00541C34.4078 8.73096 34.9566 11.4936 34.5287 15.047C34.4264 15.9213 34.259 16.8422 34.0543 17.7817C32.2311 17.3352 30.2405 16.9911 28.1476 16.7678C26.8918 15.047 25.5896 13.4842 24.278 12.1169C27.3104 9.29838 30.1568 7.75426 32.0916 7.75426V5.67993C29.5336 5.67993 26.1849 7.50311 22.799 10.6658C19.4131 7.52171 16.0644 5.71714 13.5064 5.71714V7.79147C15.4319 7.79147 18.2876 9.32628 21.32 12.1262C20.0177 13.4935 18.7155 15.047 17.4783 16.7678C15.3761 16.9911 13.3855 17.3352 11.5623 17.791C11.3483 16.8608 11.1902 15.9585 11.0786 15.0935C10.6414 11.5401 11.1809 8.77747 12.4367 8.04262C12.7157 7.87518 13.0785 7.80077 13.5064 7.80077V5.72644C12.725 5.72644 12.0181 5.89388 11.4041 6.24735C8.79031 7.75426 8.20429 12.4517 9.55307 18.3491C3.76728 20.1351 0 22.9908 0 26.0046C0 29.0277 3.78588 31.8927 9.59027 33.6694C8.2508 39.5854 8.84612 44.2922 11.4693 45.7991C12.0739 46.1526 12.7808 46.32 13.5622 46.32C16.1202 46.32 19.4689 44.4968 22.8548 41.3342C26.2407 44.4782 29.5894 46.2828 32.1474 46.2828C32.9288 46.2828 33.6357 46.1154 34.2497 45.7619C36.8635 44.255 37.4495 39.5575 36.1007 33.6601C41.8679 31.8834 45.6352 29.0184 45.6352 26.0046ZM33.5241 19.8002C33.1799 21.0002 32.752 22.2373 32.2683 23.4745C31.887 22.7303 31.487 21.9862 31.0498 21.242C30.6219 20.4979 30.1661 19.7723 29.7103 19.0654C31.0312 19.2607 32.3056 19.5026 33.5241 19.8002ZM29.2638 29.7068C28.5383 30.9625 27.7941 32.1532 27.0221 33.2601C25.6361 33.381 24.2315 33.4461 22.8176 33.4461C21.413 33.4461 20.0084 33.381 18.6317 33.2694C17.8597 32.1625 17.1062 30.9811 16.3807 29.7347C15.6737 28.5161 15.0319 27.279 14.4459 26.0325C15.0226 24.7861 15.6737 23.5396 16.3714 22.3211C17.0969 21.0653 17.8411 19.8747 18.6131 18.7677C19.9991 18.6468 21.4037 18.5817 22.8176 18.5817C24.2222 18.5817 25.6268 18.6468 27.0035 18.7584C27.7755 19.8654 28.529 21.0467 29.2545 22.2932C29.9615 23.5117 30.6033 24.7489 31.1893 25.9953C30.6033 27.2418 29.9615 28.4882 29.2638 29.7068ZM32.2683 28.4975C32.7706 29.744 33.1985 30.9904 33.552 32.1997C32.3335 32.4974 31.0498 32.7485 29.7196 32.9438C30.1754 32.2276 30.6312 31.4927 31.0591 30.7393C31.487 29.9951 31.887 29.2417 32.2683 28.4975ZM22.8362 38.4227C21.9711 37.5297 21.106 36.5344 20.2503 35.4461C21.0874 35.4833 21.9432 35.5112 22.8083 35.5112C23.6827 35.5112 24.5478 35.4926 25.3942 35.4461C24.5571 36.5344 23.692 37.5297 22.8362 38.4227ZM15.9156 32.9438C14.5947 32.7485 13.3203 32.5067 12.1018 32.209C12.446 31.0091 12.8739 29.7719 13.3576 28.5347C13.7389 29.2789 14.1389 30.023 14.5761 30.7672C15.0133 31.5114 15.4598 32.2369 15.9156 32.9438ZM22.7897 13.5866C23.6548 14.4795 24.5199 15.4748 25.3756 16.5632C24.5385 16.526 23.6827 16.4981 22.8176 16.4981C21.9432 16.4981 21.0781 16.5167 20.2317 16.5632C21.0688 15.4748 21.9339 14.4795 22.7897 13.5866ZM15.9063 19.0654C15.4505 19.7816 14.9947 20.5165 14.5668 21.2699C14.1389 22.0141 13.7389 22.7582 13.3576 23.5024C12.8552 22.2559 12.4274 21.0095 12.0739 19.8002C13.2924 19.5119 14.5761 19.2607 15.9063 19.0654ZM7.48804 30.7114C4.19517 29.3068 2.06503 27.465 2.06503 26.0046C2.06503 24.5442 4.19517 22.6931 7.48804 21.2978C8.28801 20.9537 9.16239 20.6467 10.0647 20.3584C10.5949 22.1815 11.2925 24.0791 12.1576 26.0232C11.3018 27.958 10.6135 29.8463 10.0926 31.6602C9.17169 31.3718 8.29731 31.0556 7.48804 30.7114ZM12.4925 44.0038C11.2274 43.2783 10.6786 40.5156 11.1065 36.9623C11.2088 36.0879 11.3762 35.167 11.5809 34.2275C13.4041 34.674 15.3947 35.0182 17.4876 35.2414C18.7434 36.9623 20.0456 38.525 21.3572 39.8924C18.3248 42.7109 15.4784 44.255 13.5436 44.255C13.125 44.2457 12.7715 44.162 12.4925 44.0038ZM34.5566 36.9158C34.9938 40.4691 34.4543 43.2318 33.1985 43.9666C32.9195 44.1341 32.5567 44.2085 32.1288 44.2085C30.2033 44.2085 27.3476 42.6737 24.3152 39.8738C25.6175 38.5064 26.9197 36.953 28.1569 35.2321C30.2591 35.0089 32.2497 34.6647 34.0729 34.2089C34.2869 35.1484 34.4543 36.0507 34.5566 36.9158ZM38.1379 30.7114C37.3379 31.0556 36.4635 31.3625 35.5612 31.6509C35.031 29.8277 34.3334 27.9301 33.4683 25.986C34.3241 24.0512 35.0124 22.1629 35.5333 20.3491C36.4542 20.6374 37.3286 20.9537 38.1472 21.2978C41.44 22.7024 43.5702 24.5442 43.5702 26.0046C43.5609 27.465 41.4307 29.3161 38.1379 30.7114Z" fill="#61DAFB"/>
<path d="M22.8086 30.2556C25.1563 30.2556 27.0596 28.3524 27.0596 26.0046C27.0596 23.6569 25.1563 21.7537 22.8086 21.7537C20.4608 21.7537 18.5576 23.6569 18.5576 26.0046C18.5576 28.3524 20.4608 30.2556 22.8086 30.2556Z" fill="#61DAFB"/>
</g>
<defs>
<clipPath id="clip0_161_80945">
<rect width="45.6352" height="52" fill="white"/>
</clipPath>
</defs>
</svg>
