<svg width="44" height="44" viewBox="0 0 44 44" fill="none" xmlns="http://www.w3.org/2000/svg">
<g clip-path="url(#clip0_161_81027)">
<path d="M37.342 4.92102H6.94727L8.97358 34.1579L21.4209 40.5263L33.5788 37.921L37.342 4.92102Z" fill="white"/>
<path d="M2.77078 1.45658L5.62647 37.99C5.64745 38.2582 5.74799 38.514 5.91524 38.7247C6.08249 38.9354 6.30882 39.0914 6.56526 39.1727L21.5919 43.9369C21.8577 44.0211 22.143 44.0211 22.4087 43.9369L37.4354 39.1727C37.6918 39.0914 37.9182 38.9354 38.0854 38.7247C38.2527 38.514 38.3532 38.2582 38.3742 37.99L41.2299 1.45658C41.2913 0.671128 40.6705 0 39.8828 0H4.118C3.33023 0 2.70947 0.671128 2.77078 1.45658ZM33.9067 12.7917H15.2956L15.8573 17.9711H33.5019L32.3476 32.7368L22.0004 36.0173L11.6531 32.7368L11.0501 25.0226H16.4812V28.8065L22.1455 30.3267L27.776 28.8065L28.2128 22.776H10.8745L9.72337 8.04897H34.2773L33.9067 12.7917Z" fill="#FC490B"/>
</g>
<defs>
<clipPath id="clip0_161_81027">
<rect width="44" height="44" fill="white"/>
</clipPath>
</defs>
</svg>
