<svg width="48" height="48" viewBox="0 0 48 48" fill="none" xmlns="http://www.w3.org/2000/svg">
<g clip-path="url(#clip0_161_80923)">
<path d="M24 48C37.2548 48 48 37.2548 48 24C48 10.7452 37.2548 0 24 0C10.7452 0 0 10.7452 0 24C0 37.2548 10.7452 48 24 48Z" fill="#13AA52"/>
<path d="M30.4151 21.0675C28.8991 14.377 25.3165 12.1772 24.9307 11.3367C24.5088 10.7438 24.0813 9.68906 24.0813 9.68906C24.0743 9.67125 24.0631 9.63984 24.0499 9.60938C24.0063 10.2023 23.9838 10.4311 23.4232 11.0292C22.5551 11.708 18.101 15.4453 17.7387 23.0466C17.4007 30.1359 22.8598 34.3603 23.5981 34.8989L23.682 34.9584V34.9533C23.6867 34.9889 23.9163 36.6408 24.0776 38.3911H24.656C24.7917 37.1539 24.9952 35.925 25.2654 34.71L25.3123 34.6795C25.6425 34.4427 25.9574 34.1852 26.2549 33.9084L26.2887 33.878C27.8581 32.4281 30.6795 29.0747 30.6518 23.7281C30.646 22.8363 30.5668 21.9464 30.4151 21.0675ZM24.0162 30.8962C24.0162 30.8962 24.0162 20.9531 24.3443 20.955C24.6002 20.955 24.9317 33.7805 24.9317 33.7805C24.476 33.7256 24.0162 31.6697 24.0162 30.8962Z" fill="white"/>
</g>
<defs>
<clipPath id="clip0_161_80923">
<rect width="48" height="48" fill="white"/>
</clipPath>
</defs>
</svg>
