<svg width="116" height="42" viewBox="0 0 116 42" fill="none" xmlns="http://www.w3.org/2000/svg">
<mask id="mask0_161_80951" style="mask-type:luminance" maskUnits="userSpaceOnUse" x="0" y="0" width="34" height="42">
<path d="M33.9883 19.3806L22.6589 30.6903L33.9883 42H21.0421L9.70864 30.6903L21.0421 19.3806H33.9883ZM21.0421 0L0 20.998L6.47513 27.4595L33.9883 0H21.0421Z" fill="white"/>
</mask>
<g mask="url(#mask0_161_80951)">
<path d="M16.184 37.1519L33.9885 19.3806H21.0423L9.71289 30.6903L16.184 37.1519Z" fill="#39CEFD"/>
</g>
<mask id="mask1_161_80951" style="mask-type:luminance" maskUnits="userSpaceOnUse" x="0" y="0" width="34" height="42">
<path d="M33.9883 19.3806L22.6589 30.6903L33.9883 42H21.0421L9.70864 30.6903L21.0421 19.3806H33.9883ZM21.0421 0L0 20.998L6.47513 27.4595L33.9883 0H21.0421Z" fill="white"/>
</mask>
<g mask="url(#mask1_161_80951)">
<path d="M0 20.998L21.0421 0H33.9883L6.47513 27.4595L0 20.998Z" fill="#39CEFD"/>
</g>
<mask id="mask2_161_80951" style="mask-type:luminance" maskUnits="userSpaceOnUse" x="0" y="0" width="34" height="42">
<path d="M33.9883 19.3806L22.6589 30.6903L33.9883 42H21.0421L9.70864 30.6903L21.0421 19.3806H33.9883ZM21.0421 0L0 20.998L6.47513 27.4595L33.9883 0H21.0421Z" fill="white"/>
</mask>
<g mask="url(#mask2_161_80951)">
<path d="M21.042 41.996H33.9882L22.6587 30.6903L16.1836 37.1518L21.042 41.996Z" fill="#03569B"/>
</g>
<mask id="mask3_161_80951" style="mask-type:luminance" maskUnits="userSpaceOnUse" x="0" y="0" width="34" height="42">
<path d="M33.9883 19.3806L22.6589 30.6903L33.9883 42H21.0421L9.70864 30.6903L21.0421 19.3806H33.9883ZM21.0421 0L0 20.998L6.47513 27.4595L33.9883 0H21.0421Z" fill="white"/>
</mask>
<g mask="url(#mask3_161_80951)">
<path d="M22.6587 30.6903L16.1836 37.1518L25.7869 33.8321L22.6587 30.6903Z" fill="url(#paint0_linear_161_80951)"/>
</g>
<mask id="mask4_161_80951" style="mask-type:luminance" maskUnits="userSpaceOnUse" x="0" y="0" width="34" height="42">
<path d="M33.9883 19.3806L22.6589 30.6903L33.9883 42H21.0421L9.70864 30.6903L21.0421 19.3806H33.9883ZM21.0421 0L0 20.998L6.47513 27.4595L33.9883 0H21.0421Z" fill="white"/>
</mask>
<g mask="url(#mask4_161_80951)">
<path d="M9.71191 30.6881L16.1872 24.2263L22.6629 30.6881L16.1872 37.1498L9.71191 30.6881Z" fill="#16B9FD"/>
</g>
<path d="M33.9883 19.3806L22.6589 30.6903L33.9883 42H21.0421L9.70864 30.6903L21.0421 19.3806H33.9883ZM21.0421 0L0 20.998L6.47513 27.4595L33.9883 0H21.0421Z" fill="url(#paint1_radial_161_80951)"/>
<path d="M38.0986 11.2582H49.4137V13.4664H40.395V20.1475H48.5369V22.3287H40.395V30.7815H38.0986V11.2582ZM52.1516 11.2582H54.4741V30.7826H52.1516V11.2582ZM62.9709 31.219C61.2952 31.219 60.0078 30.728 59.1087 29.7461C58.2403 28.758 57.806 27.3854 57.806 25.6286V16.8757H60.1285V25.2744C60.1285 26.5938 60.4291 27.566 61.0304 28.191C61.6316 28.8159 62.4423 29.1284 63.4625 29.1284C64.2461 29.1284 64.9419 28.9194 65.5501 28.5014C66.1764 28.0833 66.6496 27.5382 66.9697 26.866C67.3156 26.1924 67.4885 25.4834 67.4885 24.739V16.8851H69.81V30.7909H67.5971V28.7639H67.4875C67.1047 29.4548 66.4945 30.0364 65.6566 30.5086C64.8188 30.9808 63.926 31.2169 62.9782 31.2169L62.9709 31.219Z" fill="#808080"/>
<path d="M78.7495 31.0013C78.1844 31.0013 77.6563 30.9103 77.165 30.7284C76.6918 30.5464 76.2909 30.3009 75.9625 29.9919C75.5978 29.6468 75.3247 29.2468 75.1431 28.792C74.9608 28.3378 74.8696 27.7833 74.8696 27.1285V18.9756H72.4375V16.8757H74.8696V12.9487H77.1921V16.8757H80.5804V18.9756H77.1921V26.5566C77.1921 27.3205 77.3382 27.884 77.6305 28.2472C77.9764 28.6472 78.4774 28.8472 79.1336 28.8472C79.6625 28.8472 80.1726 28.6927 80.6639 28.3837V30.6471C80.3904 30.7742 80.1079 30.8652 79.8163 30.92C79.5428 30.9756 79.1879 31.0034 78.7516 31.0034L78.7495 31.0013Z" fill="#808080"/>
<path d="M88.5991 31.0013C88.0341 31.0013 87.5059 30.9103 87.0146 30.7284C86.5414 30.5464 86.1406 30.3009 85.8121 29.9919C85.4475 29.6468 85.1743 29.2468 84.9927 28.792C84.8104 28.3378 84.7192 27.7833 84.7192 27.1285V18.9756H82.2871V16.8757H84.7192V12.9487H87.0417V16.8757H90.43V18.9756H87.0417V26.5566C87.0417 27.3205 87.1879 27.884 87.4801 28.2472C87.826 28.6472 88.327 28.8472 88.9832 28.8472C89.5121 28.8472 90.0222 28.6927 90.5135 28.3837V30.6471C90.24 30.7742 89.9575 30.8652 89.6659 30.92C89.3924 30.9756 89.0375 31.0034 88.6012 31.0034L88.5991 31.0013Z" fill="#808080"/>
<path d="M98.8281 31.2189C97.506 31.2189 96.3125 30.9009 95.2478 30.2648C94.1915 29.6287 93.3627 28.7562 92.7614 27.6472C92.1783 26.5201 91.8867 25.2563 91.8867 23.8556C91.8867 22.5105 92.1598 21.2745 92.7061 20.1474C93.2712 19.0204 94.0638 18.1204 95.0839 17.4475C96.1041 16.7739 97.2882 16.4371 98.6361 16.4371C100.002 16.4371 101.186 16.7496 102.188 17.3746C103.19 17.9746 103.956 18.8107 104.485 19.8829C105.031 20.9557 105.304 22.1828 105.304 23.564C105.304 23.8369 105.276 24.073 105.221 24.2723H94.2082C94.2639 25.3264 94.5189 26.2174 94.9733 26.9451C95.4284 27.6722 96.0025 28.2173 96.6956 28.5805C97.4054 28.9444 98.143 29.1263 98.9085 29.1263C100.694 29.1263 102.07 28.2902 103.035 26.6181L105.002 27.5722C104.401 28.6992 103.581 29.5902 102.543 30.245C101.523 30.8992 100.284 31.2262 98.8271 31.2262L98.8281 31.2189ZM102.845 22.3567C102.809 21.7748 102.645 21.1932 102.354 20.612C102.062 20.0301 101.597 19.5391 100.961 19.1391C100.334 18.7391 99.5515 18.5391 98.6121 18.5391C97.5195 18.5391 96.5905 18.8933 95.8251 19.6016C95.0784 20.2926 94.5864 21.2106 94.3491 22.3557H102.848L102.845 22.3567ZM107.995 16.8757H110.208V19.112H110.318C110.591 18.3482 111.119 17.7211 111.902 17.2309C112.686 16.7218 113.505 16.4673 114.361 16.4673C114.999 16.4673 115.545 16.5583 116 16.7402V19.2485C115.417 18.9568 114.761 18.811 114.032 18.811C113.357 18.811 112.738 19.002 112.174 19.3839C111.609 19.7658 111.157 20.2839 110.818 20.938C110.49 21.5741 110.327 22.2685 110.327 23.0213V30.7919H108.004V16.8861L107.995 16.8757Z" fill="#808080"/>
<defs>
<linearGradient id="paint0_linear_161_80951" x1="18.0733" y1="38.3988" x2="22.8856" y2="33.5763" gradientUnits="userSpaceOnUse">
<stop stop-color="#1A237E" stop-opacity="0.4"/>
<stop offset="1" stop-color="#1A237E" stop-opacity="0"/>
</linearGradient>
<radialGradient id="paint1_radial_161_80951" cx="0" cy="0" r="1" gradientUnits="userSpaceOnUse" gradientTransform="translate(0.954848 2.8626) scale(51.4899 51.3819)">
<stop stop-color="white" stop-opacity="0.1"/>
<stop offset="1" stop-color="white" stop-opacity="0"/>
</radialGradient>
</defs>
</svg>
