<svg width="32" height="32" viewBox="0 0 32 32" fill="none" xmlns="http://www.w3.org/2000/svg">
<g clip-path="url(#clip0_161_81159)">
<path d="M16 19.2812C17.8122 19.2812 19.2812 17.8122 19.2812 16C19.2812 14.1878 17.8122 12.7188 16 12.7188C14.1878 12.7188 12.7188 14.1878 12.7188 16C12.7188 17.8122 14.1878 19.2812 16 19.2812Z" fill="#475569"/>
<path d="M16 0.375C7.37056 0.375 0.375 7.37056 0.375 16C0.375 24.6294 7.37056 31.625 16 31.625C24.6294 31.625 31.625 24.6294 31.625 16C31.625 7.37056 24.6294 0.375 16 0.375ZM25.6536 19.9713C25.5786 21.4568 25.1612 22.9216 24.0786 23.9927C22.9856 25.0739 21.5138 25.4768 20.0139 25.5511H11.9861C10.4861 25.4768 9.0145 25.0742 7.92144 23.9927C6.83881 22.9216 6.42144 21.4568 6.34644 19.9713V12.0288C6.42144 10.5433 6.83887 9.07837 7.92144 8.00725C9.0145 6.926 10.4863 6.52312 11.9861 6.44894H20.0139C21.5139 6.52312 22.9855 6.92581 24.0786 8.00725C25.1612 9.07837 25.5786 10.5433 25.6536 12.0288L25.6536 19.9713Z" fill="#475569"/>
<path d="M19.9127 8.25872C17.9573 8.2051 14.0435 8.2051 12.0882 8.25872C11.0706 8.28666 9.91703 8.53997 9.19203 9.31435C8.43866 10.1193 8.15397 11.0918 8.12509 12.1797C8.07434 14.0892 8.12509 19.8205 8.12509 19.8205C8.15816 20.9083 8.43866 21.8809 9.19203 22.6859C9.91703 23.4605 11.0706 23.7135 12.0882 23.7415C14.0435 23.7951 17.9573 23.7951 19.9127 23.7415C20.9302 23.7135 22.0838 23.4602 22.8088 22.6859C23.5622 21.8809 23.8468 20.9084 23.8757 19.8205V12.1797C23.8468 11.0918 23.5622 10.1193 22.8088 9.31435C22.0835 8.53972 20.93 8.28666 19.9127 8.25872ZM16.0002 21.086C14.9943 21.086 14.0109 20.7878 13.1746 20.2289C12.3382 19.6701 11.6863 18.8757 11.3014 17.9464C10.9164 17.0171 10.8157 15.9945 11.0119 15.0079C11.2082 14.0213 11.6926 13.1151 12.4039 12.4038C13.1151 11.6925 14.0214 11.2081 15.0079 11.0119C15.9945 10.8156 17.0171 10.9164 17.9465 11.3013C18.8758 11.6862 19.6701 12.3381 20.229 13.1745C20.7878 14.0109 21.0861 14.9942 21.0861 16.0001C21.0861 17.349 20.5503 18.6426 19.5965 19.5964C18.6427 20.5502 17.349 21.086 16.0002 21.086ZM21.1077 11.964C20.9066 11.9639 20.7099 11.9042 20.5427 11.7924C20.3754 11.6806 20.2451 11.5217 20.1681 11.3359C20.0912 11.15 20.0711 10.9455 20.1104 10.7482C20.1496 10.5509 20.2465 10.3697 20.3888 10.2274C20.5311 10.0852 20.7123 9.98835 20.9096 9.94913C21.1069 9.9099 21.3114 9.93006 21.4973 10.0071C21.6831 10.084 21.842 10.2144 21.9537 10.3817C22.0655 10.549 22.1252 10.7456 22.1252 10.9468C22.1252 11.0804 22.0988 11.2127 22.0477 11.3361C21.9966 11.4595 21.9216 11.5717 21.8271 11.6661C21.7327 11.7606 21.6205 11.8355 21.4971 11.8866C21.3736 11.9377 21.2413 11.964 21.1077 11.964Z" fill="#475569"/>
</g>
<defs>
<clipPath id="clip0_161_81159">
<rect width="32" height="32" fill="white"/>
</clipPath>
</defs>
</svg>
