<svg width="48" height="39" viewBox="0 0 48 39" fill="none" xmlns="http://www.w3.org/2000/svg">
<g clip-path="url(#clip0_161_80991)">
<path d="M5.29509 4.99875C5.20453 2.39812 7.23075 0 9.96956 0H38.0339C40.7727 0 42.7989 2.39812 42.7084 4.99875C42.6214 7.49691 42.7343 10.733 43.5487 13.3716C44.3658 16.0183 45.7435 17.6913 48 17.9062V20.3438C45.7435 20.5587 44.3658 22.2317 43.5487 24.8784C42.7343 27.517 42.6214 30.7531 42.7084 33.2513C42.7989 35.8519 40.7727 38.25 38.0339 38.25H9.96956C7.23075 38.25 5.20453 35.8519 5.29519 33.2513C5.38209 30.7531 5.26912 27.517 4.45463 24.8784C3.63769 22.2317 2.25656 20.5587 0 20.3438V17.9062C2.25647 17.6913 3.63769 16.0183 4.45463 13.3716C5.26912 10.733 5.38209 7.49691 5.29509 4.99875Z" fill="url(#paint0_linear_161_80991)"/>
<g filter="url(#filter0_d_161_80991)">
<path d="M25.0404 29.2928C29.4745 29.2928 32.1465 27.1218 32.1465 23.5408C32.1465 20.834 30.24 18.8743 27.4091 18.5641V18.4513C29.489 18.113 31.121 16.1815 31.121 14.0245C31.121 10.9511 28.6946 8.9491 24.9971 8.9491H16.6777V29.2928H25.0404ZM19.913 11.5291H24.2172C26.557 11.5291 27.8857 12.5723 27.8857 14.4615C27.8857 16.4776 26.3404 17.6054 23.5384 17.6054H19.913V11.5291ZM19.913 26.7129V20.0163H24.1882C27.2502 20.0163 28.839 21.1441 28.839 23.3435C28.839 25.5428 27.2936 26.7129 24.376 26.7129H19.913Z" fill="url(#paint1_linear_161_80991)"/>
<path d="M25.0404 29.2928C29.4745 29.2928 32.1465 27.1218 32.1465 23.5408C32.1465 20.834 30.24 18.8743 27.4091 18.5641V18.4513C29.489 18.113 31.121 16.1815 31.121 14.0245C31.121 10.9511 28.6946 8.9491 24.9971 8.9491H16.6777V29.2928H25.0404ZM19.913 11.5291H24.2172C26.557 11.5291 27.8857 12.5723 27.8857 14.4615C27.8857 16.4776 26.3404 17.6054 23.5384 17.6054H19.913V11.5291ZM19.913 26.7129V20.0163H24.1882C27.2502 20.0163 28.839 21.1441 28.839 23.3435C28.839 25.5428 27.2936 26.7129 24.376 26.7129H19.913Z" stroke="white"/>
</g>
</g>
<defs>
<filter id="filter0_d_161_80991" x="0.177734" y="-3.5509" width="48.4688" height="53.3438" filterUnits="userSpaceOnUse" color-interpolation-filters="sRGB">
<feFlood flood-opacity="0" result="BackgroundImageFix"/>
<feColorMatrix in="SourceAlpha" type="matrix" values="0 0 0 0 0 0 0 0 0 0 0 0 0 0 0 0 0 0 127 0" result="hardAlpha"/>
<feOffset dy="4"/>
<feGaussianBlur stdDeviation="8"/>
<feColorMatrix type="matrix" values="0 0 0 0 0 0 0 0 0 0 0 0 0 0 0 0 0 0 0.15 0"/>
<feBlend mode="normal" in2="BackgroundImageFix" result="effect1_dropShadow_161_80991"/>
<feBlend mode="normal" in="SourceGraphic" in2="effect1_dropShadow_161_80991" result="shape"/>
</filter>
<linearGradient id="paint0_linear_161_80991" x1="7.13241" y1="1.01231" x2="49.0762" y2="34.3073" gradientUnits="userSpaceOnUse">
<stop stop-color="#9013FE"/>
<stop offset="1" stop-color="#6610F2"/>
</linearGradient>
<linearGradient id="paint1_linear_161_80991" x1="18.1409" y1="10.2881" x2="27.5165" y2="26.1443" gradientUnits="userSpaceOnUse">
<stop stop-color="white"/>
<stop offset="1" stop-color="#F1E5FC"/>
</linearGradient>
<clipPath id="clip0_161_80991">
<rect width="48" height="38.25" fill="white"/>
</clipPath>
</defs>
</svg>
