<svg width="128" height="36" viewBox="0 0 128 36" fill="none" xmlns="http://www.w3.org/2000/svg">
<path d="M117.747 12.7772C117.436 12.7772 117.133 12.8413 116.864 12.9924L108.378 17.8735C107.829 18.1887 107.495 18.7838 107.495 19.4171V29.1615C107.495 29.7943 107.829 30.3886 108.378 30.7046L110.594 31.9789C111.671 32.5074 112.068 32.4992 112.558 32.4992C114.152 32.4992 115.063 31.5357 115.063 29.8614V20.2424C115.063 20.1065 114.944 20.0092 114.811 20.0092H113.747C113.611 20.0092 113.495 20.1065 113.495 20.2424V29.8614C113.495 30.6034 112.719 31.3499 111.459 30.7226L109.153 29.3768C109.071 29.3326 109.009 29.2545 109.009 29.1615V19.4169C109.009 19.3246 109.071 19.2305 109.153 19.1836L117.621 14.3208C117.66 14.2985 117.703 14.2868 117.747 14.2868C117.792 14.2868 117.835 14.2985 117.873 14.3208L126.342 19.1839C126.423 19.2323 126.486 19.3218 126.486 19.4173V29.1618C126.486 29.2548 126.439 29.3501 126.36 29.395L117.873 34.2581C117.801 34.3012 117.701 34.3012 117.621 34.2581L115.441 32.9661C115.408 32.9482 115.371 32.9388 115.333 32.9388C115.295 32.9388 115.258 32.9482 115.225 32.9661C114.623 33.3058 114.51 33.3452 113.946 33.5403C113.807 33.5886 113.595 33.6637 114.018 33.8994L116.864 35.568C117.133 35.7222 117.438 35.8028 117.747 35.8015C118.057 35.8034 118.362 35.7229 118.63 35.5682L127.117 30.7049C127.666 30.3869 128 29.7945 128 29.1618V19.4171C128 18.7841 127.666 18.19 127.117 17.874L118.63 12.9929C118.364 12.8415 118.059 12.7774 117.747 12.7774L117.747 12.7772Z" fill="#83CD29"/>
<path d="M120.018 19.7401C117.601 19.7401 116.162 20.7645 116.162 22.468C116.162 24.3156 117.591 24.8234 119.91 25.0519C122.685 25.3225 122.901 25.7283 122.901 26.2723C122.901 27.2158 122.146 27.6181 120.361 27.6181C118.118 27.6181 117.625 27.0605 117.46 25.9493C117.44 25.8301 117.348 25.7338 117.225 25.7338H116.126C115.991 25.7338 115.874 25.85 115.874 25.9852C115.874 27.4076 116.651 29.0897 120.361 29.0897C123.046 29.0897 124.595 28.0399 124.595 26.2005C124.595 24.3772 123.344 23.8876 120.739 23.5447C118.107 23.1978 117.856 23.0279 117.856 22.4141C117.856 21.9073 118.069 21.2294 120.018 21.2294C121.759 21.2294 122.403 21.6035 122.667 22.773C122.69 22.8827 122.787 22.9703 122.901 22.9703H124C124.068 22.9703 124.134 22.9289 124.18 22.8805C124.226 22.8289 124.259 22.7708 124.252 22.7012C124.082 20.6874 122.734 19.7401 120.018 19.7401Z" fill="#83CD29"/>
<path d="M67.8559 0.000115867C67.7611 0.000178536 67.6678 0.0248491 67.5855 0.0716981C67.5036 0.119404 67.4356 0.187527 67.3882 0.269355C67.3409 0.351184 67.3157 0.443895 67.3152 0.538354V14.2667C67.3152 14.4014 67.2524 14.5221 67.1352 14.5897C67.0778 14.623 67.0125 14.6406 66.946 14.6406C66.8795 14.6406 66.8142 14.623 66.7568 14.5897L64.5045 13.2977C64.3402 13.203 64.1538 13.1532 63.964 13.1532C63.7742 13.1532 63.5877 13.203 63.4234 13.2977L54.4324 18.4658C54.0964 18.6591 53.892 19.0305 53.892 19.4171V29.7536C53.892 30.1397 54.0966 30.4934 54.4324 30.6867L63.4234 35.8551C63.5876 35.95 63.7741 36 63.964 36C64.1538 36 64.3403 35.95 64.5045 35.8551L73.4955 30.6867C73.6601 30.5923 73.7968 30.4564 73.8917 30.2925C73.9866 30.1287 74.0365 29.9428 74.0361 29.7536V3.98403C74.0359 3.79043 73.9841 3.60037 73.8859 3.43325C73.7878 3.26612 73.647 3.12792 73.4777 3.03276L68.1261 0.0537402C68.0422 0.0070995 67.9491 -0.00113121 67.8559 0.000115867ZM10.018 12.9029C9.84668 12.9096 9.68541 12.9395 9.53165 13.0283L0.54042 18.1967C0.375719 18.291 0.238976 18.4269 0.144065 18.5908C0.0491548 18.7546 -0.000546441 18.9406 4.53154e-06 19.1298L0.0180351 33.002C0.0180351 33.1948 0.117954 33.3742 0.288243 33.4684C0.369883 33.5173 0.463332 33.5431 0.558575 33.5431C0.653819 33.5431 0.747268 33.5173 0.828908 33.4684L6.16219 30.4178C6.50001 30.2178 6.72064 29.8701 6.72064 29.4845V23.0062C6.72064 22.6196 6.92473 22.2649 7.2613 22.0729L9.53139 20.763C9.69553 20.6679 9.8822 20.6183 10.0721 20.6193C10.2574 20.6193 10.4477 20.6654 10.6125 20.763L12.8828 22.0729C13.0477 22.167 13.1845 22.303 13.2795 22.4669C13.3745 22.6309 13.4242 22.8169 13.4235 23.0062V29.4843C13.4235 29.8699 13.6464 30.22 13.9819 30.4176L19.3152 33.4684C19.3969 33.5173 19.4903 33.5431 19.5855 33.5431C19.6808 33.5431 19.7742 33.5173 19.8559 33.4684C19.9381 33.4211 20.0063 33.353 20.0538 33.2711C20.1012 33.1892 20.1263 33.0963 20.1263 33.0018L20.1439 19.1298C20.1449 18.9405 20.0955 18.7543 20.0005 18.5904C19.9055 18.4264 19.7685 18.2906 19.6035 18.1967L10.6125 13.0283C10.4605 12.9395 10.2987 12.9099 10.1262 12.9029H10.018ZM90.8108 13.0283C90.623 13.0283 90.4389 13.0757 90.2704 13.172L81.2794 18.3404C81.1148 18.4347 80.978 18.5707 80.8831 18.7345C80.7882 18.8984 80.7384 19.0843 80.7387 19.2734V29.61C80.7387 29.9988 80.9586 30.351 81.2972 30.5433L90.2163 35.6039C90.5456 35.791 90.9478 35.8052 91.2793 35.6214L96.6847 32.6247C96.8563 32.5299 96.9722 32.3528 96.973 32.1582C96.9739 32.0635 96.9493 31.9703 96.9018 31.8882C96.8543 31.8061 96.7856 31.7382 96.7028 31.6916L87.6577 26.5232C87.4884 26.4269 87.3695 26.2321 87.3695 26.0386V22.8087C87.3695 22.6154 87.4897 22.4383 87.6577 22.342L90.4685 20.7268C90.5506 20.6794 90.6439 20.6545 90.7388 20.6545C90.8337 20.6545 90.927 20.6794 91.0091 20.7268L93.8196 22.342C93.902 22.3891 93.9704 22.4571 94.0179 22.539C94.0653 22.6209 94.0903 22.7138 94.0901 22.8084V25.3567C94.0898 25.4513 94.1147 25.5442 94.1622 25.6261C94.2096 25.708 94.278 25.776 94.3603 25.8231C94.5288 25.9201 94.7327 25.9204 94.9007 25.8231L100.288 22.7012C100.453 22.6065 100.589 22.4704 100.684 22.3066C100.779 22.1427 100.829 21.957 100.829 21.7678V19.2737C100.829 18.8883 100.624 18.5339 100.288 18.3404L91.3515 13.172C91.1872 13.0773 91.0006 13.0276 90.8108 13.0283ZM63.9278 20.745C63.9748 20.745 64.0299 20.7565 64.072 20.7807L67.1532 22.5573C67.2369 22.6054 67.2975 22.6944 67.2975 22.7905V26.3436C67.2975 26.4401 67.2374 26.5289 67.1532 26.5771L64.072 28.3537C64.0309 28.3771 63.9843 28.3894 63.9369 28.3894C63.8895 28.3894 63.843 28.3771 63.8018 28.3537L60.7208 26.5771C60.6369 26.5287 60.5766 26.4401 60.5766 26.3436V22.7905C60.5766 22.6942 60.6372 22.6059 60.7208 22.5573L63.8018 20.7809C63.8397 20.7575 63.8834 20.7451 63.928 20.7452L63.9278 20.745Z" fill="#475569"/>
<path d="M37.0271 12.9745C36.8398 12.9745 36.6545 13.0219 36.4867 13.1182L27.4957 18.2686C27.1594 18.4614 26.9551 18.8335 26.9551 19.2196V29.5561C26.9551 29.9427 27.1597 30.2959 27.4957 30.4894L36.4867 35.6576C36.6509 35.7526 36.8374 35.8026 37.0273 35.8026C37.2171 35.8026 37.4036 35.7526 37.5678 35.6576L46.5588 30.4894C46.7234 30.395 46.86 30.259 46.9549 30.0951C47.0498 29.9312 47.0996 29.7453 47.0992 29.5561V19.2196C47.0992 18.833 46.8948 18.4614 46.5588 18.2686L37.5678 13.1182C37.4035 13.0236 37.2169 12.9741 37.0271 12.9745ZM90.7929 22.1986C90.7571 22.1986 90.7173 22.1986 90.685 22.2166L88.9553 23.2215C88.9231 23.2393 88.8961 23.2653 88.8771 23.2968C88.8581 23.3284 88.8478 23.3643 88.8471 23.4011V25.3749C88.8471 25.4493 88.8902 25.5173 88.9553 25.5545L90.685 26.5414C90.7499 26.5789 90.819 26.5789 90.8831 26.5414L92.6128 25.5543C92.6449 25.5363 92.6718 25.5103 92.6908 25.4789C92.7097 25.4474 92.7201 25.4116 92.721 25.3749V23.4008C92.7201 23.3641 92.7097 23.3283 92.6908 23.2968C92.6718 23.2654 92.6449 23.2394 92.6128 23.2215L90.8831 22.2163C90.851 22.1976 90.829 22.1986 90.7929 22.1986Z" fill="#83CD29"/>
</svg>
