<svg width="107" height="72" viewBox="0 0 107 72" fill="none" xmlns="http://www.w3.org/2000/svg">
<path d="M25.5095 65.5923H21.4154C21.2706 58.6874 20.8718 52.1959 20.2199 46.1131H20.1835L13.9502 65.5923H10.8331L4.63687 46.1131H4.60127C4.14162 51.9533 3.85206 58.4463 3.73181 65.5923H0C0.240506 56.9025 0.844937 48.7557 1.81092 41.1512H6.88529L12.7911 59.1103H12.8275L18.7698 41.1512H23.625C24.6883 50.0585 25.3165 58.206 25.5095 65.5923ZM43.265 47.5597C41.5981 56.5982 39.3987 63.1655 36.6693 67.265C34.5427 70.4206 32.2128 72 29.6756 72C28.9992 72 28.1646 71.7961 27.1756 71.3913V69.212C27.659 69.2815 28.2263 69.3211 28.8782 69.3211C30.0633 69.3211 31.0158 68.9954 31.7421 68.3424C32.6108 67.5472 33.0451 66.6532 33.0451 65.6643C33.0451 64.986 32.7065 63.5995 32.0309 61.5L27.538 47.5589H31.5601L34.7848 57.9855C35.5095 60.353 35.8117 62.0059 35.6907 62.9474C37.4541 58.2416 38.6859 53.1105 39.3877 47.5581H43.265V47.5597Z" fill="#5D87A1"/>
<path d="M97.7629 65.5923H86.1332V41.1512H90.0454V62.5837H97.7629V65.5923ZM83.0889 66.1828L78.592 63.9655C78.9908 63.6382 79.3721 63.2841 79.7155 62.8738C81.6269 60.6304 82.5802 57.3127 82.5802 52.9184C82.5802 44.8325 79.4045 40.7876 73.0509 40.7876C69.9354 40.7876 67.505 41.8136 65.7669 43.8665C63.8571 46.1115 62.9037 49.4173 62.9037 53.788C62.9037 58.0843 63.7487 61.2359 65.4394 63.2351C66.986 65.0461 69.3175 65.9528 72.4354 65.9528C73.5984 65.9528 74.6656 65.8105 75.6379 65.5235L81.4924 68.929L83.0889 66.1828ZM68.5216 60.7016C67.5311 59.1095 67.0359 56.5531 67.0359 53.0283C67.0359 46.8744 68.9069 43.7938 72.653 43.7938C74.611 43.7938 76.0462 44.5306 76.9639 46.0009C77.9528 47.5953 78.4504 50.1288 78.4504 53.6046C78.4504 59.8091 76.5778 62.9118 72.8341 62.9118C70.8753 62.9125 69.4401 62.1782 68.5216 60.7016ZM61.1988 58.8178C61.1988 60.8905 60.4378 62.5908 58.9172 63.9228C57.395 65.2492 55.3539 65.914 52.7961 65.914C50.4037 65.914 48.0841 65.1504 45.8389 63.6311L46.8903 61.5324C48.8223 62.4991 50.5715 62.9797 52.1419 62.9797C53.6158 62.9797 54.7677 62.6533 55.6031 62.0059C56.4378 61.3561 56.9354 60.4446 56.9354 59.2921C56.9354 57.84 55.9219 56.5989 54.0628 55.5594C52.3484 54.6188 48.9196 52.652 48.9196 52.652C47.0612 51.2987 46.1308 49.8458 46.1308 47.4522C46.1308 45.4712 46.8246 43.8721 48.2131 42.6555C49.6031 41.4342 51.3966 40.8255 53.5952 40.8255C55.8658 40.8255 57.9299 41.4334 59.789 42.6365L58.846 44.7361C57.2558 44.061 55.6862 43.7235 54.1379 43.7235C52.884 43.7235 51.9156 44.0246 51.2424 44.6294C50.5636 45.2317 50.145 46.0024 50.145 46.9479C50.145 48.3929 51.1799 49.6497 53.0897 50.7098C54.827 51.6521 58.3412 53.6528 58.3412 53.6528C60.2471 55.0037 61.1988 56.4432 61.1988 58.8178Z" fill="#F8981D"/>
<path d="M102.674 32.9649C100.309 32.9049 98.4771 33.1428 96.9399 33.7926C96.496 33.9696 95.7904 33.9696 95.7286 34.5301C95.9684 34.7672 95.9961 35.1498 96.2041 35.4771C96.5586 36.0676 97.1764 36.862 97.7405 37.2763C98.36 37.7505 98.9818 38.2201 99.6337 38.6335C100.783 39.3442 102.086 39.7576 103.206 40.4659C103.859 40.8777 104.508 41.4105 105.161 41.854C105.483 42.0903 105.688 42.4737 106.105 42.6215V42.5314C105.896 42.2658 105.837 41.8816 105.632 41.586L104.744 40.7307C103.887 39.5797 102.821 38.575 101.672 37.7498C100.725 37.0984 98.6559 36.213 98.2722 35.1238L98.212 35.0637C98.8623 35.0028 99.6337 34.7672 100.252 34.5862C101.257 34.3214 102.174 34.3815 103.206 34.1167C103.68 33.9981 104.151 33.8495 104.627 33.7032V33.4369C104.093 32.9049 103.711 32.1982 103.149 31.6954C101.644 30.3966 99.9858 29.1263 98.2722 28.0631C97.3544 27.471 96.1741 27.09 95.197 26.5865C94.8449 26.4086 94.2516 26.3209 94.0443 26.0252C93.5142 25.3755 93.216 24.5202 92.8315 23.751C91.9771 22.1281 91.1472 20.3274 90.4098 18.6113C89.8766 17.4603 89.5522 16.3109 88.9019 15.2462C85.856 10.2266 82.5483 7.18634 77.4644 4.20225C76.3718 3.58093 75.072 3.31612 73.6835 2.99044L71.466 2.87344C70.9929 2.66634 70.519 2.1043 70.106 1.83869C68.4193 0.776279 64.0767 -1.52641 62.8362 1.5138C62.0372 3.43548 64.0182 5.32475 64.6986 6.29942C65.2009 6.97607 65.8521 7.74601 66.2033 8.51436C66.4114 9.01632 66.4699 9.54911 66.678 10.0795C67.1511 11.3791 67.5934 12.8249 68.2152 14.0375C68.5396 14.6557 68.8932 15.3054 69.3078 15.8651C69.5451 16.1924 69.9581 16.337 70.0483 16.8706C69.6361 17.4587 69.6036 18.3464 69.3671 19.0848C68.3038 22.4214 68.7191 26.5549 70.2263 29.007C70.6978 29.7453 71.8228 31.3705 73.3275 30.7476C74.6598 30.2164 74.3647 28.5335 74.7476 27.0576C74.8354 26.7011 74.7777 26.4671 74.9549 26.2331V26.2908C75.3671 27.1169 75.7832 27.9129 76.1654 28.7414C77.0823 30.1872 78.6788 31.6938 80.0087 32.6954C80.7168 33.2297 81.2777 34.1435 82.1646 34.47V34.3815H82.106C81.9264 34.1167 81.6638 33.9981 81.428 33.7926C80.8948 33.2606 80.3046 32.6108 79.8908 32.0211C78.6519 30.3666 77.5554 28.535 76.5823 26.645C76.106 25.728 75.6954 24.7257 75.3117 23.8103C75.1329 23.4569 75.1329 22.9242 74.8362 22.7463C74.3916 23.3953 73.7437 23.9573 73.4193 24.7526C72.8568 26.0245 72.7983 27.5888 72.5894 29.2157L72.4731 29.2726C71.5316 29.0362 71.2041 28.0631 70.8465 27.2371C69.9612 25.1391 69.8125 21.7716 70.5807 19.3512C70.7864 18.7322 71.6764 16.7829 71.3212 16.1932C71.1432 15.628 70.5514 15.3062 70.2271 14.8612C69.8457 14.3015 69.428 13.5932 69.1622 12.9719C68.4533 11.319 68.0965 9.48745 67.3331 7.83533C66.9763 7.0654 66.3568 6.26859 65.8552 5.55952C65.2919 4.76271 64.6725 4.20146 64.2271 3.25683C64.0799 2.93194 63.8734 2.40073 64.11 2.04738C64.1677 1.81024 64.288 1.7217 64.5237 1.66242C64.9066 1.33911 66.0008 1.75016 66.3845 1.92802C67.4802 2.37069 68.3964 2.78412 69.3109 3.40386C69.7247 3.70029 70.1685 4.26154 70.6994 4.40936H71.3212C72.265 4.61489 73.3291 4.46628 74.2176 4.73346C75.7832 5.23621 77.2017 5.97373 78.4739 6.76975C82.3449 9.22264 85.5372 12.7079 87.6923 16.8706C88.0459 17.5488 88.1962 18.1702 88.519 18.8777C89.1416 20.3258 89.9114 21.8025 90.5293 23.2198C91.1503 24.6071 91.7421 26.0237 92.629 27.1762C93.0712 27.7959 94.8481 28.1208 95.6448 28.4457C96.2342 28.7105 97.1519 28.9461 97.6836 29.271C98.6891 29.8899 99.6907 30.6006 100.636 31.2812C101.107 31.6353 102.586 32.3736 102.674 32.9649ZM72.5269 7.30255C72.1189 7.29831 71.7121 7.34828 71.3172 7.45116V7.51044H71.3742C71.6123 7.98236 72.0261 8.30963 72.3212 8.72147C72.5593 9.19497 72.7658 9.66452 72.9992 10.1372L73.0562 10.0787C73.4731 9.78388 73.6804 9.31117 73.6804 8.60211C73.5008 8.39342 73.4731 8.18947 73.3236 7.98236C73.1495 7.68672 72.7658 7.53969 72.5269 7.30255Z" fill="#5D87A1"/>
<path d="M105.489 65.5884H106.102V62.594H105.183L104.434 64.6374L103.62 62.594H102.735V65.5884H103.314V63.3102H103.346L104.199 65.5884H104.64L105.489 63.3102V65.5884ZM100.557 65.5884H101.204V63.1015H102.053V62.5932H99.6729V63.1015H100.555L100.557 65.5884Z" fill="#F8981D"/>
</svg>
