<svg width="48" height="48" viewBox="0 0 48 48" fill="none" xmlns="http://www.w3.org/2000/svg">
<g clip-path="url(#clip0_161_81009)">
<path d="M48 24C48 25.4517 47.8707 26.8732 47.6239 28.2533C45.6167 39.4795 35.8031 48 24 48C15.1073 48 7.344 43.1637 3.19838 35.9775C2.17545 34.2065 1.38494 32.311 0.846375 30.338C0.293906 28.3191 0 26.1933 0 24C0 10.7452 10.7452 0 24 0C34.9401 0 44.1698 7.31953 47.0605 17.3289C47.6719 19.4468 48 21.6852 48 24Z" fill="#8F9ED1"/>
<path d="M12.204 16.7099H3.36518L0.84668 30.338C1.38524 32.311 2.17575 34.2065 3.19868 35.9775H4.01862L4.99427 30.6995H9.85109C15.7648 30.6995 17.3547 25.3901 17.7358 22.7824C18.1179 20.1757 16.2106 16.7099 12.204 16.7099ZM13.4863 23.2222C13.2699 24.7004 12.1776 27.7106 8.82546 27.7106H5.54674L7.01224 19.7789H10.3497C13.603 19.7789 13.7028 21.744 13.4863 23.2222ZM47.0608 17.3289C46.3095 16.941 45.4141 16.7098 44.3797 16.7098H35.5408L31.98 35.9775H36.1942L37.1698 30.6995H42.0266C44.6569 30.6995 46.4319 29.6494 47.624 28.2534C47.8749 26.8495 48.0008 25.4262 48.0003 24C48.0003 21.6852 47.6722 19.4469 47.0608 17.3289ZM45.662 23.2222C45.4455 24.7004 44.3532 27.7106 41.0001 27.7106H37.7224L39.1879 19.7789H42.5254C45.7786 19.7789 45.8785 21.744 45.662 23.2222ZM28.9914 16.7737H23.8729L24.8336 11.5751H20.6368L17.0759 30.8423H21.2727L23.3205 19.7623H26.0027C27.7831 19.7623 28.9914 20.1439 28.7369 21.7972C28.4826 23.4504 27.0201 30.763 27.0201 30.763H31.2805C31.2805 30.763 32.9337 22.6239 33.1881 20.3346C33.4425 18.0454 31.3441 16.7737 28.9914 16.7737Z" fill="#F2F2F2"/>
</g>
<defs>
<clipPath id="clip0_161_81009">
<rect width="48" height="48" fill="white"/>
</clipPath>
</defs>
</svg>
