<svg width="44" height="44" viewBox="0 0 44 44" fill="none" xmlns="http://www.w3.org/2000/svg">
<path d="M4.93491 0C3.76071 0 2.83914 1.00678 2.9427 2.17639L6.13428 38.2224C6.20767 39.0514 6.78669 39.7482 7.58816 39.9722L21.4618 43.8496C21.8138 43.948 22.1862 43.948 22.5383 43.8496L36.4064 39.9749C37.2078 39.7509 37.7869 39.0542 37.8604 38.2253L41.057 2.17665C41.1607 1.00694 40.2391 0 39.0648 0H4.93491Z" fill="#2196F3"/>
<path d="M33.753 12.9497L33.3103 17.9244L31.9738 32.8377L21.9995 35.5959L21.9913 35.5987L12.0225 32.8377L11.3268 25.0387H16.2108L16.5738 29.0839L21.994 30.5469L21.9968 30.5442L27.4253 29.0812L28.165 22.3409L11.093 22.3877L10.609 17.7787L28.5748 17.5669L28.9378 12.6334L10.1278 12.6857L9.81152 8.09595H34.1875L33.753 12.9497Z" fill="#FAFAFA"/>
</svg>
