<svg width="44" height="44" viewBox="0 0 44 44" fill="none" xmlns="http://www.w3.org/2000/svg">
<g clip-path="url(#clip0_161_81015)">
<path d="M0 2C0 0.895431 0.895431 0 2 0H42C43.1046 0 44 0.895431 44 2V42C44 43.1046 43.1046 44 42 44H2C0.895431 44 0 43.1046 0 42V2Z" fill="#FFDF00"/>
<path d="M29.5566 34.3752C30.4428 35.8223 31.5959 36.8859 33.6353 36.8859C35.3485 36.8859 36.4429 36.0296 36.4429 34.8465C36.4429 33.4287 35.3185 32.9266 33.4328 32.1018L32.3991 31.6582C29.4154 30.3871 27.4334 28.7947 27.4334 25.4284C27.4334 22.3274 29.7961 19.9668 33.4886 19.9668C36.1175 19.9668 38.0074 20.8817 39.3692 23.2773L36.1496 25.3446C35.4407 24.0735 34.6759 23.5727 33.4886 23.5727C32.2776 23.5727 31.51 24.341 31.51 25.3446C31.51 26.585 32.2783 27.0871 34.0522 27.8554L35.0859 28.2982C38.5989 29.8047 40.5823 31.3405 40.5823 34.7934C40.5823 38.516 37.6581 40.5554 33.7309 40.5554C29.891 40.5554 27.4103 38.7255 26.1964 36.3271L29.5566 34.3752ZM14.9506 34.7334C15.6001 35.8859 16.191 36.8601 17.6116 36.8601C18.97 36.8601 19.827 36.3286 19.827 34.2621V20.203H23.9616V34.3178C23.9616 38.5991 21.4515 40.5477 17.7876 40.5477C14.4771 40.5477 12.56 38.8345 11.585 36.771L14.9506 34.7334Z" fill="black"/>
</g>
<defs>
<clipPath id="clip0_161_81015">
<rect width="44" height="44" fill="white"/>
</clipPath>
</defs>
</svg>
