<svg width="116" height="162" viewBox="0 0 116 162" fill="none" xmlns="http://www.w3.org/2000/svg">
<g clip-path="url(#clip0_161_80984)">
<path d="M113.738 26.466C113.779 26.6197 113.8 26.7782 113.801 26.9374V51.685C113.801 52.0026 113.717 52.3146 113.558 52.5895C113.399 52.8643 113.171 53.0923 112.896 53.2503L92.1607 65.2091V88.9124C92.1607 89.5574 91.8185 90.1529 91.2601 90.4777L47.9776 115.437C47.8786 115.494 47.7705 115.53 47.6624 115.568C47.6219 115.582 47.5836 115.606 47.5408 115.618C47.2383 115.698 46.9202 115.698 46.6177 115.618C46.5681 115.604 46.5231 115.577 46.4758 115.559C46.3767 115.523 46.2732 115.491 46.1786 115.437L2.90514 90.4777C2.63024 90.3195 2.40182 90.0915 2.24291 89.8167C2.084 89.5419 2.00022 89.23 2 88.9124V14.6696C2 14.5072 2.02252 14.3493 2.06304 14.1959C2.07655 14.1441 2.10808 14.0967 2.12609 14.0448C2.15986 13.9501 2.19139 13.8531 2.24092 13.7651C2.27469 13.7065 2.32423 13.6591 2.36476 13.605C2.41655 13.5328 2.46383 13.4584 2.52462 13.3952C2.57641 13.3434 2.64396 13.305 2.7025 13.2599C2.76779 13.2058 2.82634 13.1471 2.90064 13.1043L24.5407 0.624473C24.8147 0.466543 25.1253 0.383423 25.4414 0.383423C25.7575 0.383423 26.068 0.466543 26.342 0.624473L47.9799 13.1043H47.9844C48.0564 13.1494 48.1172 13.2058 48.1825 13.2577C48.2411 13.3028 48.3064 13.3434 48.3581 13.393C48.4212 13.4584 48.4662 13.5328 48.5203 13.605C48.5585 13.6591 48.6103 13.7065 48.6418 13.7651C48.6936 13.8554 48.7229 13.9501 48.7589 14.0448C48.7769 14.0967 48.8085 14.1441 48.822 14.1982C48.8634 14.3519 48.8846 14.5104 48.885 14.6696V61.0409L66.9158 50.6407V26.9351C66.9158 26.7773 66.9383 26.6171 66.9789 26.466C66.9946 26.4119 67.0239 26.3645 67.0419 26.3126C67.0779 26.2179 67.1094 26.1209 67.159 26.0329C67.1928 25.9743 67.2423 25.9269 67.2806 25.8728C67.3346 25.8006 67.3796 25.7262 67.4427 25.663C67.4945 25.6111 67.5598 25.5728 67.6183 25.5277C67.6859 25.4736 67.7444 25.4149 67.8165 25.3721L89.4588 12.8923C89.7327 12.7341 90.0433 12.6509 90.3594 12.6509C90.6756 12.6509 90.9862 12.7341 91.2601 12.8923L112.898 25.3721C112.974 25.4172 113.033 25.4736 113.101 25.5254C113.157 25.5705 113.222 25.6111 113.274 25.6608C113.337 25.7262 113.382 25.8006 113.436 25.8728C113.477 25.9269 113.526 25.9743 113.558 26.0329C113.609 26.1209 113.639 26.2179 113.675 26.3126C113.695 26.3645 113.724 26.4119 113.738 26.466ZM110.194 50.6407V30.0613L102.622 34.428L92.1607 40.4615V61.0409L110.196 50.6407H110.194ZM88.5559 87.8681V67.2751L78.2661 73.1621L48.8828 89.9612V110.748L88.5559 87.8681ZM5.60706 17.7935V87.8681L45.2757 110.746V89.9634L24.552 78.2144L24.5452 78.2099L24.5362 78.2054C24.4664 78.1648 24.4079 78.1062 24.3426 78.0565C24.2863 78.0114 24.221 77.9753 24.1715 77.9257L24.167 77.919C24.1084 77.8626 24.0679 77.7926 24.0184 77.7295C23.9733 77.6686 23.9193 77.6167 23.8833 77.5536L23.881 77.5468C23.8405 77.4791 23.8157 77.3979 23.7865 77.3212C23.7572 77.2536 23.7189 77.1904 23.7009 77.1182C23.6784 77.0325 23.6739 76.9401 23.6649 76.8521C23.6559 76.7844 23.6379 76.7168 23.6379 76.6491V28.1937L13.1792 22.1579L5.60706 17.7935ZM25.4436 4.27391L7.41509 14.6696L25.4391 25.0653L43.4654 14.6674L25.4391 4.27391H25.4436ZM34.8193 69.1517L45.278 63.1205V17.7935L37.7058 22.1602L27.2449 28.1937V73.5207L34.8193 69.1517ZM90.3594 16.5417L72.3332 26.9374L90.3594 37.3331L108.383 26.9351L90.3594 16.5417ZM88.5559 40.4615L78.095 34.428L70.5229 30.0613V50.6407L80.9815 56.6719L88.5559 61.0409V40.4615ZM47.077 86.8373L73.5175 71.7163L86.7344 64.1603L68.7216 53.7713L47.9821 65.7324L29.08 76.6333L47.077 86.8373Z" fill="#FF2D20"/>
</g>
<g clip-path="url(#clip1_161_80984)">
<path fill-rule="evenodd" clip-rule="evenodd" d="M4.85676 132.949V156.789H13.341V160.902H0.338867V132.949H4.85676ZM29.288 144.809V142.293H33.5698V160.903H29.289V158.387C28.7121 159.319 27.895 160.051 26.8337 160.583C25.7734 161.116 24.706 161.381 23.6325 161.381C22.2435 161.381 20.9736 161.123 19.8218 160.603C18.6991 160.106 17.6894 159.378 16.8556 158.466C16.0295 157.559 15.3773 156.503 14.9325 155.352C14.4689 154.157 14.235 152.882 14.2436 151.597C14.2436 150.294 14.4726 149.048 14.9315 147.863C15.3735 146.704 16.0263 145.641 16.8556 144.728C17.6896 143.817 18.6993 143.09 19.8218 142.592C20.9736 142.073 22.2435 141.814 23.6325 141.814C24.706 141.814 25.7734 142.08 26.8337 142.613C27.894 143.146 28.711 143.877 29.288 144.809ZM28.8952 153.874C29.1589 153.145 29.2923 152.375 29.289 151.598C29.289 150.799 29.1567 150.04 28.8952 149.322C28.6498 148.631 28.2768 147.994 27.7963 147.445C27.3166 146.906 26.7352 146.471 26.0868 146.166C25.4193 145.848 24.6795 145.687 23.8686 145.687C23.0555 145.687 22.3219 145.848 21.6676 146.166C21.0272 146.475 20.4532 146.91 19.9785 147.445C19.4995 147.991 19.1328 148.629 18.8999 149.321C18.6482 150.053 18.5215 150.822 18.5254 151.597C18.5254 152.396 18.6496 153.155 18.8989 153.873C19.1471 154.593 19.5074 155.218 19.9795 155.751C20.454 156.286 21.0281 156.721 21.6686 157.029C22.3219 157.349 23.0555 157.508 23.8675 157.508C24.6795 157.508 25.4193 157.349 26.0868 157.029C26.7354 156.724 27.3168 156.289 27.7963 155.751C28.2768 155.202 28.6498 154.565 28.8952 153.874ZM36.9481 160.902V142.293H48.5755V146.577H41.2289V160.904H36.9481V160.902ZM64.091 144.809V142.293H68.3729V160.903H64.091V158.387C63.5151 159.319 62.697 160.051 61.6357 160.583C60.5754 161.116 59.509 161.381 58.4345 161.381C57.0466 161.381 55.7767 161.123 54.6248 160.603C53.5022 160.106 52.4924 159.378 51.6587 158.466C50.8322 157.559 50.1796 156.503 49.7345 155.352C49.2713 154.157 49.0378 152.882 49.0467 151.597C49.0467 150.294 49.2756 149.048 49.7345 147.863C50.1762 146.704 50.8287 145.641 51.6577 144.728C52.492 143.817 53.502 143.089 54.6248 142.592C55.7767 142.073 57.0466 141.814 58.4345 141.814C59.508 141.814 60.5754 142.08 61.6357 142.613C62.697 143.146 63.5151 143.877 64.091 144.809ZM63.6983 153.874C63.9616 153.145 64.0946 152.375 64.091 151.598C64.091 150.799 63.9588 150.04 63.6983 149.322C63.4529 148.631 63.0799 147.994 62.5993 147.445C62.1197 146.906 61.5383 146.471 60.8898 146.166C60.2223 145.848 59.4816 145.687 58.6706 145.687C57.8586 145.687 57.1249 145.848 56.4707 146.166C55.8303 146.475 55.2563 146.91 54.7815 147.445C54.3022 147.991 53.9352 148.629 53.7019 149.321C53.4506 150.053 53.3243 150.823 53.3285 151.597C53.3285 152.396 53.4516 153.155 53.7019 153.873C53.9502 154.593 54.3104 155.218 54.7815 155.751C55.2561 156.286 55.8301 156.721 56.4707 157.029C57.1249 157.349 57.8586 157.508 58.6706 157.508C59.4816 157.508 60.2223 157.349 60.8898 157.029C61.5384 156.724 62.1199 156.289 62.5993 155.751C63.0799 155.202 63.4529 154.565 63.6983 153.874ZM85.5378 142.293H89.8746L82.8484 160.903H77.4656L70.4385 142.293H74.7752L80.157 156.544L85.5378 142.293ZM99.2136 141.814C105.043 141.814 109.019 147.067 108.272 153.215H94.0679C94.0679 154.821 95.6624 157.924 99.4487 157.924C102.705 157.924 104.887 155.012 104.888 155.01L107.781 157.286C105.195 160.092 103.077 161.382 99.761 161.382C93.8359 161.382 89.8196 157.571 89.8196 151.598C89.8196 146.195 93.9712 141.814 99.2136 141.814ZM94.0791 149.98H104.34C104.308 149.622 103.752 145.271 99.179 145.271C94.6051 145.271 94.1116 149.622 94.0791 149.98ZM111.06 160.902V132.949H115.342V160.902H111.06Z" fill="#FF2D20"/>
</g>
<defs>
<clipPath id="clip0_161_80984">
<rect width="112" height="116" fill="white" transform="translate(2)"/>
</clipPath>
<clipPath id="clip1_161_80984">
<rect width="116" height="30" fill="white" transform="translate(0 132)"/>
</clipPath>
</defs>
</svg>
