<svg width="32" height="32" viewBox="0 0 32 32" fill="none" xmlns="http://www.w3.org/2000/svg">
<g clip-path="url(#clip0_161_81149)">
<path d="M22.3875 13.4839C20.581 13.4839 20.0004 15.2258 19.8713 16.2581V16.3226L19.6133 17.2903C20.3875 17.9355 21.3552 18.3871 22.323 18.3871C23.6133 18.3871 24.7746 17.2903 24.8391 15.871C24.8391 14.5807 23.7423 13.4839 22.3875 13.4839Z" fill="#475569"/>
<path d="M16 0C7.16129 0 0 7.16129 0 16C0 24.8387 7.16129 32 16 32C24.8387 32 32 24.8387 32 16C32 7.16129 24.8387 0 16 0ZM22.3871 20.9032C21.0968 20.9032 20 20.5161 19.0323 19.9355L17.9355 25.0968H15.4194L16.9677 18C16.3226 17.0968 15.6774 16.0645 15.2258 15.0968V16.1935C15.2258 18.8387 13.0968 20.9677 10.5161 20.9677C7.93548 20.9677 5.80645 18.8387 5.80645 16.1935V9.74194H8.25806V16.1935C8.25806 17.4839 9.29032 18.5161 10.5806 18.5161C11.871 18.5161 12.9032 17.4839 12.9032 16.1935V9.74194H15.3548C15.871 11.3548 16.7097 13.2903 17.8065 15.0323C18.4516 12.5806 20.2581 11.0968 22.5161 11.0968C25.1613 11.0968 27.3548 13.2903 27.3548 15.9355C27.2258 18.7097 25.0323 20.9032 22.3871 20.9032Z" fill="#475569"/>
</g>
<defs>
<clipPath id="clip0_161_81149">
<rect width="32" height="32" fill="white"/>
</clipPath>
</defs>
</svg>
