<svg width="192" height="24" viewBox="0 0 192 24" fill="none" xmlns="http://www.w3.org/2000/svg">
<g clip-path="url(#clip0_161_80996)">
<path fill-rule="evenodd" clip-rule="evenodd" d="M19.7551 0C14.4867 0 11.1948 2.61832 9.87716 7.85497C11.8529 5.23665 14.1577 4.25497 16.7915 4.90916C18.2942 5.28232 19.3688 6.36619 20.5572 7.56619C22.4942 9.52026 24.7363 11.7817 29.6323 11.7817C34.8999 11.7817 38.1925 9.16335 39.5094 3.92748C37.5345 6.54581 35.2297 7.52748 32.5959 6.87252C31.0924 6.49935 30.0178 5.41548 28.8294 4.21626C26.8924 2.26065 24.6511 0 19.7551 0ZM9.87716 11.7817C4.60955 11.7817 1.3169 14.4 0 19.6366C1.97574 17.0183 4.28052 16.0366 6.91355 16.6908C8.41703 17.064 9.49161 18.1479 10.68 19.3479C12.617 21.3019 14.8583 23.5634 19.7551 23.5634C25.0227 23.5634 28.3154 20.9458 29.6323 15.7092C27.6565 18.3275 25.3517 19.3092 22.7179 18.655C21.2152 18.281 20.1406 17.1972 18.9523 15.9979C17.0152 14.0439 14.7732 11.7817 9.87716 11.7817Z" fill="#38BDF8"/>
<path fill-rule="evenodd" clip-rule="evenodd" d="M59.2614 9.92904H55.814V16.5616C55.814 18.3306 56.9814 18.3027 59.2614 18.192V20.873C54.6457 21.4258 52.8109 20.1546 52.8109 16.5616V9.92904H50.2529V7.05446H52.8109V3.34297L55.814 2.45807V7.05446H59.2614V9.92904ZM72.4026 7.05446H75.4049V20.873H72.4026V18.8834C71.3458 20.3474 69.7053 21.2323 67.5368 21.2323C63.7556 21.2323 60.614 18.0542 60.614 13.9634C60.614 9.8462 63.7556 6.69523 67.5368 6.69523C69.7053 6.69523 71.3458 7.57936 72.4026 9.01704V7.05446ZM68.0098 18.3856C70.512 18.3856 72.4026 16.5337 72.4026 13.9634C72.4026 11.393 70.512 9.54194 68.0098 9.54194C65.5076 9.54194 63.6171 11.3938 63.6171 13.9634C63.6171 16.5337 65.5076 18.3856 68.0098 18.3856ZM80.4093 4.98194C79.3533 4.98194 78.4916 4.09781 78.4916 3.0751C78.4941 2.56825 78.6973 2.08303 79.0567 1.72565C79.4161 1.36827 79.9025 1.16785 80.4093 1.16826C80.9163 1.16764 81.4029 1.36797 81.7624 1.72537C82.122 2.08278 82.3253 2.56812 82.3278 3.0751C82.3278 4.09704 81.4661 4.98194 80.4093 4.98194ZM78.9081 20.873V7.05446H81.9112V20.873H78.9081ZM85.3866 20.873V0.696777H88.3889V20.8723H85.3866V20.873ZM107.879 7.05446H111.049L106.684 20.873H103.737L100.845 11.5595L97.9254 20.873H94.9789L90.6132 7.05446H93.7827L96.48 16.5886L99.3995 7.05446H102.263L105.154 16.5886L107.879 7.05446ZM114.774 4.98194C113.717 4.98194 112.856 4.09781 112.856 3.0751C112.858 2.56812 113.061 2.08278 113.421 1.72537C113.781 1.36797 114.267 1.16764 114.774 1.16826C115.281 1.16764 115.768 1.36797 116.127 1.72537C116.487 2.08278 116.69 2.56812 116.693 3.0751C116.693 4.09704 115.831 4.98194 114.774 4.98194ZM113.273 20.873V7.05446H116.275V20.873H113.273ZM127.063 6.69523C130.177 6.69523 132.401 8.79562 132.401 12.3886V20.8723H129.399V12.6921C129.399 10.5917 128.175 9.48697 126.285 9.48697C124.311 9.48697 122.754 10.6475 122.754 13.4663V20.873H119.751V7.05446H122.754V8.82349C123.671 7.38658 125.172 6.69523 127.063 6.69523ZM146.636 1.52749H149.639V20.8723H146.636V18.8826C145.58 20.3474 143.94 21.2315 141.771 21.2315C137.99 21.2315 134.848 18.0534 134.848 13.9626C134.848 9.84542 137.99 6.69446 141.771 6.69446C143.94 6.69446 145.58 7.57858 146.636 9.01626V1.52749ZM142.243 18.3856C144.746 18.3856 146.636 16.5337 146.636 13.9634C146.636 11.393 144.746 9.54194 142.243 9.54194C139.741 9.54194 137.851 11.3938 137.851 13.9634C137.851 16.5337 139.741 18.3856 142.243 18.3856ZM159.704 21.2323C155.505 21.2323 152.364 18.0542 152.364 13.9634C152.364 9.8462 155.505 6.69523 159.704 6.69523C162.428 6.69523 164.792 8.10426 165.904 10.2604L163.318 11.753C162.706 10.4539 161.344 9.62478 159.676 9.62478C157.229 9.62478 155.367 11.4766 155.367 13.9634C155.367 16.4508 157.229 18.3027 159.676 18.3027C161.344 18.3027 162.706 17.4457 163.373 16.1745L165.959 17.6392C164.792 19.8225 162.428 21.2323 159.704 21.2323ZM170.908 10.8681C170.908 13.3835 178.387 11.863 178.387 16.9765C178.387 19.7404 175.968 21.2323 172.966 21.2323C170.186 21.2323 168.184 19.9881 167.294 17.9985L169.88 16.5066C170.324 17.7499 171.437 18.4963 172.966 18.4963C174.3 18.4963 175.329 18.0542 175.329 16.9479C175.329 14.489 167.85 15.871 167.85 10.9239C167.85 8.32568 170.102 6.69523 172.938 6.69523C175.218 6.69523 177.108 7.74581 178.082 9.56981L175.551 10.9788C175.051 9.90117 174.077 9.40336 172.938 9.40336C171.853 9.40336 170.908 9.87329 170.908 10.8681ZM183.725 10.8681C183.725 13.3835 191.204 11.863 191.204 16.9765C191.204 19.7404 188.786 21.2323 185.782 21.2323C183.002 21.2323 181.001 19.9881 180.111 17.9985L182.697 16.5066C183.142 17.7499 184.253 18.4963 185.782 18.4963C187.117 18.4963 188.146 18.0542 188.146 16.9479C188.146 14.489 180.667 15.871 180.667 10.9239C180.667 8.32568 182.919 6.69523 185.755 6.69523C188.035 6.69523 189.925 7.74581 190.898 9.56981L188.368 10.9788C187.868 9.90117 186.895 9.40336 185.755 9.40336C184.671 9.40336 183.725 9.87329 183.725 10.8681Z" fill="#475569"/>
</g>
<defs>
<clipPath id="clip0_161_80996">
<rect width="192" height="24" fill="white"/>
</clipPath>
</defs>
</svg>
